/* XPM */
static char *_51ac8448e274a2cad5d660634e923edOfbk41QwwbnWMG6O[] = {
/* columns rows colors chars-per-pixel */
"64 64 256 2 ",
"   c black",
".  c #010101",
"X  c #020202",
"o  c gray1",
"O  c #040404",
"+  c gray2",
"@  c #060606",
"#  c #070707",
"$  c gray3",
"%  c #090909",
"&  c gray4",
"*  c #0B0B0B",
"=  c #0C0C0C",
"-  c gray5",
";  c #0E0E0E",
":  c gray6",
">  c #101010",
",  c #111111",
"<  c gray7",
"1  c #131313",
"2  c gray8",
"3  c #151515",
"4  c #161616",
"5  c gray9",
"6  c #181818",
"7  c #191919",
"8  c gray10",
"9  c #1B1B1B",
"0  c gray11",
"q  c #1D1D1D",
"w  c #1E1E1E",
"e  c gray12",
"r  c #202020",
"t  c gray13",
"y  c #222222",
"u  c #232323",
"i  c gray14",
"p  c #252525",
"a  c gray15",
"s  c #272727",
"d  c #282828",
"f  c gray16",
"g  c #2A2A2A",
"h  c gray17",
"j  c #2C2C2C",
"k  c #2D2D2D",
"l  c gray18",
"z  c #2F2F2F",
"x  c gray19",
"c  c #313131",
"v  c #323232",
"b  c gray20",
"n  c #343434",
"m  c #353535",
"M  c gray21",
"N  c #373737",
"B  c gray22",
"V  c #393939",
"C  c #3A3A3A",
"Z  c gray23",
"A  c #3C3C3C",
"S  c gray24",
"D  c #3E3E3E",
"F  c #3F3F3F",
"G  c gray25",
"H  c #414141",
"J  c gray26",
"K  c #434343",
"L  c #444444",
"P  c gray27",
"I  c #464646",
"U  c gray28",
"Y  c #484848",
"T  c #494949",
"R  c gray29",
"E  c #4B4B4B",
"W  c #4C4C4C",
"Q  c gray30",
"!  c #4E4E4E",
"~  c gray31",
"^  c #505050",
"/  c #515151",
"(  c gray32",
")  c #535353",
"_  c gray33",
"`  c #555555",
"'  c #565656",
"]  c gray34",
"[  c #585858",
"{  c gray35",
"}  c #5A5A5A",
"|  c #5B5B5B",
" . c gray36",
".. c #5D5D5D",
"X. c gray37",
"o. c #5F5F5F",
"O. c #606060",
"+. c gray38",
"@. c #626262",
"#. c gray39",
"$. c #646464",
"%. c #656565",
"&. c gray40",
"*. c #676767",
"=. c #686868",
"-. c DimGray",
";. c #6A6A6A",
":. c gray42",
">. c #6C6C6C",
",. c #6D6D6D",
"<. c gray43",
"1. c #6F6F6F",
"2. c gray44",
"3. c #717171",
"4. c #727272",
"5. c gray45",
"6. c #747474",
"7. c gray46",
"8. c #767676",
"9. c #777777",
"0. c gray47",
"q. c #797979",
"w. c gray48",
"e. c #7B7B7B",
"r. c #7C7C7C",
"t. c gray49",
"y. c #7E7E7E",
"u. c gray50",
"i. c #808080",
"p. c #818181",
"a. c gray51",
"s. c #838383",
"d. c #848484",
"f. c gray52",
"g. c #868686",
"h. c gray53",
"j. c #888888",
"k. c #898989",
"l. c gray54",
"z. c #8B8B8B",
"x. c gray55",
"c. c #8D8D8D",
"v. c #8E8E8E",
"b. c gray56",
"n. c #909090",
"m. c gray57",
"M. c #929292",
"N. c #939393",
"B. c gray58",
"V. c #959595",
"C. c gray59",
"Z. c #979797",
"A. c #989898",
"S. c gray60",
"D. c #9A9A9A",
"F. c #9B9B9B",
"G. c gray61",
"H. c #9D9D9D",
"J. c gray62",
"K. c #9F9F9F",
"L. c #A0A0A0",
"P. c gray63",
"I. c #A2A2A2",
"U. c gray64",
"Y. c #A4A4A4",
"T. c #A5A5A5",
"R. c gray65",
"E. c #A7A7A7",
"W. c gray66",
"Q. c #A9A9A9",
"!. c #AAAAAA",
"~. c gray67",
"^. c #ACACAC",
"/. c gray68",
"(. c #AEAEAE",
"). c #AFAFAF",
"_. c gray69",
"`. c #B1B1B1",
"'. c #B2B2B2",
"]. c gray70",
"[. c #B4B4B4",
"{. c gray71",
"}. c #B6B6B6",
"|. c #B7B7B7",
" X c gray72",
".X c #B9B9B9",
"XX c gray73",
"oX c #BBBBBB",
"OX c #BCBCBC",
"+X c gray74",
"@X c gray",
"#X c gray75",
"$X c #C0C0C0",
"%X c #C1C1C1",
"&X c gray76",
"*X c #C3C3C3",
"=X c gray77",
"-X c #C5C5C5",
";X c #C6C6C6",
":X c gray78",
">X c #C8C8C8",
",X c gray79",
"<X c #CACACA",
"1X c #CBCBCB",
"2X c gray80",
"3X c #CDCDCD",
"4X c #CECECE",
"5X c gray81",
"6X c #D0D0D0",
"7X c gray82",
"8X c #D2D2D2",
"9X c LightGray",
"0X c gray83",
"qX c #D5D5D5",
"wX c gray84",
"eX c #D7D7D7",
"rX c #D8D8D8",
"tX c gray85",
"yX c #DADADA",
"uX c gray86",
"iX c gainsboro",
"pX c #DDDDDD",
"aX c gray87",
"sX c #DFDFDF",
"dX c gray88",
"fX c #E1E1E1",
"gX c #E2E2E2",
"hX c gray89",
"jX c #E4E4E4",
"kX c gray90",
"lX c #E6E6E6",
"zX c #E7E7E7",
"xX c gray91",
"cX c #E9E9E9",
"vX c #EAEAEA",
"bX c gray92",
"nX c #ECECEC",
"mX c gray93",
"MX c #EEEEEE",
"NX c #EFEFEF",
"BX c gray94",
"VX c #F1F1F1",
"CX c gray95",
"ZX c #F3F3F3",
"AX c #F4F4F4",
"SX c gray96",
"DX c #F6F6F6",
"FX c gray97",
"GX c #F8F8F8",
"HX c #F9F9F9",
"JX c gray98",
"KX c #FBFBFB",
"LX c gray99",
"PX c #FDFDFD",
"IX c #FEFEFE",
"UX c white",
/* pixels */
"k z x x x x x x x x x x x x x x x x x x x x x x x x x x x x x x x x x x x x x x x x x x x x x x x x x x x x x x x x x x x x x l ",
"k N Z A A A A A A A A A A A A A A A A A A Z Z Z Z Z Z Z Z Z Z Z Z Z Z Z Z Z Z Z Z Z Z Z Z Z Z Z Z Z Z Z A A A A A A A A A A C v ",
"k B U ! ~ ~ ~ ~ ~ ~ ~ ~ ~ ~ ~ ~ ~ ~ ~ ~ ~ ( ) ` ` ' ' ' ' ' ' ' { ] { ] { ] { ] [ ] ` ' ' ' ' _ ( ( ) / ~ ~ ~ ~ ~ W Q Q E T G b ",
"k B T O.#.$.-.-.$.#.#.#.#.#.#.#.#.#.#.#.&.,.2.e.u.e.w.e.e.e.e.y.d.p.s.p.s.p.s.a.k.g.t.w.e.e.q.4.1.1.,.*.#.#.#.#.*.#.X.{ _ ! G v ",
"k B T O.$.$.q.i.<.%.$.$.$.$.$.$.$.&.%.*.<.2.1.a.c.d.t.r.r.r.u.f.s.f.s.f.s.f.s.a.x.C.z.u.r.w.6.2.2.<.=.$.$.$.$.@.2.i.<.] _ ! G b ",
"k B T +.+./ 1.l.5.%.$.$.$.$.$.$.*.:.-.<.2.3.X.,.l.a.r.r.r.u.f.s.f.s.f.s.f.s.f.*.-.j.l.u.w.6.2.2.<.=.$.$.$.$.@.) O.d.0.{ ( W G b ",
"k B T +.o.S R $.] +.$.$.$.$.$.*.:.-.<.2.5.9.Y I #.$.7.r.u.f.s.f.s.f.s.f.s.f.i.! K O.%.2.6.2.2.<.=.$.$.$.$.@. .H D X.` T ! R G b ",
"k B T +.@.~ D I X.$.$.$.&.%.*.:.-.<.2.5.w.e.@.U R 1.r.u.f.s.f.s.f.s.f.s.f.i.r.&.T U =.6.2.2.<.=.$.$.$.$.@. ...Q C A T ! ! W G b ",
"k B T O.$.#.@.@.$.$.$.*.:.=.:.-.<.2.5.w.t.t.r.w.w.r.i.g.d.g.d.g.d.g.d.g.p.t.t.r.w.0.5.3.2.<.=.$.$.$.$.@. ...} _ ) / Q ! ! R G b ",
"k B T O.$.$.$.$.$.$.*.:.-.:.-.<.2.3.q.6.2.,.,.,.,.<.8.3.7.3.7.3.7.4.7.3.,.,.,.,.,.*.#.%.:.=.$.$.$.$.@. ...{ _ _ ) ! ! ! ! Q G b ",
"k B T O.$.$.$.$.$.*.:.-.:.-.<.2.2.5.q.-.) Z n z k k l l l l l l l l l l k k k k v M K ! ..$.$.$.$.@. ...{ _ _ ) ! ! ! ! Q Y G b ",
"k B T O.$.$.&.%.*.:.-.:.-.<.2.2.5.w.t.k.5.S g 8 2 2 2 2 2 2 2 2 2 2 2 2 2 2 2 2 i B +.-.*.&.$.$.@.| ..{ _ _ ) ! ! ! ! Q Y Y G b ",
"k B T O.$.*.:.=.:.-.:.-.<.2.2.5.w.r.r.y.l.5.O.{ | { | { | { | { | { [ [ [ [ [ ] [ >.:.&.2.:.$.@.| ..{ _ _ ) ! ! ! ! Q Y Y Y G b ",
"k B T +.*.:.-.:.-.:.-.<.2.2.5.w.r.r.r.r.y.x.x.s.d.i.s.i.s.i.s.i.s.y.w.w.w.w.0.3.w.7.-.;.=.$.@.| ..{ _ _ ) ! ! ! ! W Y Y Y Y G b ",
"k B T #.>.-.:.-.:.-.<.2.2.5.w.r.r.r.r.r.r.y.M.C.g.f.s.g.s.g.s.g.i.r.r.r.r.w.5.8.f.6.;.=.$.@.| ..{ _ _ ) ! ! ! ! W Y Y Y Y Y G b ",
"k B R *.-.:.-.:.-.<.2.2.5.w.r.r.r.r.r.y.t.u.v.Z.n.s.f.s.f.s.f.i.r.r.r.r.w.5.8.h.8.:.=.$.$.....{ _ _ ) ! ~ ! ! W Y Y Y Y Y Y G b ",
"k B T $.>.-.:.-.<.2.2.4.4.9.r.r.r.r.u.g.a.f.s.v.C.b.s.f.s.f.i.r.r.r.r.w.7.8.h.r.<.*.$.$.$.+.{ _ _ ) ! E E ~ W Y Y Y Y Y Y Y G b ",
"k B R *.-.:.-.<.2.2.5.8.{  .1.e.r.u.g.a.g.a.f.s.v.C.b.s.f.i.r.r.r.r.w.7.r.l.r.1.=.$.$.$.@.| ` _ ) ! Q A J Q Y Y Y Y Y Y Y Y G b ",
"k B T $.>.-.<.2.2.5.w.w.%.P T >.y.g.a.g.a.g.d.l.d.v.C.b.s.t.r.r.r.w.7.r.x.t.1.=.$.-.:.$.| ..{ ( ! Q A k S T Y Y Y Y Y Y Y Y G b ",
"k B R *.-.<.2.2.5.w.r.r.5./ V T r.s.g.a.f.y.x.C.n.f.v.C.v.y.e.r.w.7.q.v.f.4.*.$.+.q.z.>...{ ) ! Q S 3 8 S Y Y Y Y Y Y Y Y Y G b ",
"k B T $.<.2.2.5.w.r.r.t.h.*.b c *.f.s.g.i.%.4.c.v.j.s.M.n.r.w.w.7.9.u.x.w.-.%.$.^ %.k.7.} _ ! Q S 3   7 S Y Y Y Y Y Y Y Y Y G b ",
"k B R ;.2.2.4.w.r.r.r.y.n.0.! 6 l =.d.s.a.Y R ;.&.8.g.m.C.v.y.7.9.q.j.e.;.:.*.#.J L +.^ W _ ) D 6 # X 8 S Y Y Y Y Y Y Y Y Y G b ",
"k B R :.2.5.y.i.t.r.r.y.M.z.3.c > l =.f.i.[ J Y 1.t.t.u.v.C.i.0.0.h.w.;.:.=.$.$.E B S W ) ) T 0 1 a , 7 S Y Y Y T R T Y Y Y G b ",
"k B R :.4.q.v.B.d.t.r.i.N.b.h.o.j > l =.d.y.u.e.d.u.r.r.t.v.B.i.j.e.;.:.=.$.$.$.O.` / ) ) T j : q n 4 7 S Y Y T ( { / T T T G b ",
"k B R <.9.$.9.n.c.u.u.j.V.n.x.d.X.j > l =.f.s.g.i.r.r.w.7.w.x.m.s.<.:.=.$.$.$.@.} ` _ ) T j > q n V 4 7 S Y Y R ..4.@.E ! Q G b ",
"k B W 7.8.P ^ <.1.r.g.s.B.Z.c.s.p.X.j > l =.d.i.r.r.w.7.9.5.6.r.e.3.*.$.$.$.@.| ` _ ) T j > q n J D 4 7 S Y Y Z J o.( Y ! R G b ",
"k B W 7.w.@.J E 7.g.a.j.V.Z.v.j.a.p.X.j > z *.e.r.w.7.9.5.4.q.e.5.=.%.$.$.@.| ..[ ) T j > q n J Y F 4 7 S Y Y G M Z T Q ! Q G b ",
"k B W 7.e.5.-.;.u.a.g.s.B.A.c.s.g.a.p.X.k > z &.w.7.9.5.4.1.2.>.@.X.X.@.@.| ..{ ` E j > q n J Y Y F 4 7 S Y Y U I E Q ! ! R G b ",
"k B W 5.>.U z z / u.a.j.V.Z.v.j.a.g.a.p. .f = k o.8.6.4.4.Z h n V V A '  ...{ ` / M 1 q n J Y Y Y F 4 7 S Y Y Y Y R ! ! ! Q G b ",
"k B R *./ 3 r d k 4.h.s.B.A.c.s.g.a.g.i.8.P , # j X.2.9...6 o @ 5 y v ! X.{ ` / N 3 q n J Y Y Y Y F 4 7 S Y Y Y T ! ! ! ! R G b ",
"k B Y ) P & @ 7 d 9.s.j.V.Z.v.j.a.g.i.r.w. .C , & b &.0.R ;     o 3 c _ } _ ^ M 3 q n J Y Y Y Y Y F 4 7 S Y Y T ! ! ! ! ~ Q G b ",
"k B I W W =   + i 4.h.s.B.A.c.s.g.i.r.r.w.2.{ Z i N :.0.F *       o f ! ` _ Z 3 q n J Y Y Y Y Y Y F 4 7 S Y Y Q ! ! ! ~ _ ! G b ",
"k B U ] +.>   X i 9.s.j.V.Z.v.j.i.r.r.w.7.9.1.} I { >.-.b $       . s W ` ) N k B K Y Y Y Y Y Y Y F 4 7 S Y Y R ! ! ~ ) _ ! G b ",
"k B R <.9.1   X u 4.h.s.B.A.c.i.r.r.w.7.9.5.3.q.f.6.=.-.b #       . r T _ Q _ =.*.) T Y Y Y Y Y Y F 4 7 S Y T ! ! ~ ) _ _ ! G b ",
"k B Q u.7.<   X i 9.s.j.V.Z.c.u.r.w.7.9.5.2.4.x.s.>.:.&.c #         3 K ! ~ ~ ..3.;.) T Y Y Y Y Y F 4 7 S T ! ! ! ) _ _ _ ! G b ",
"k B W e.w.1   X u 4.h.a.N.A.c.u.w.7.9.5.2.3.r.v.6.>.=.@.c & X o O + * B ^ Q ~ !  .4.;./ U Y Y Y Y F 4 7 D ! ! ! ! ^ _ _ _ ! G b ",
"k B Q u.5.,   X t 8.p.y.N.A.c.t.7.9.5.2.3.r.x.s.4.<.*.@.N t y t s c A W Q ~ W Y R $.9.| Y Y Y Y Y F 4 7 J ! ! ! ~ ) _ _ _ ! G b ",
"k B W 8.*.1     2 >.t.y.N.A.c.0.9.5.2.3.r.x.s.6.1.=.$.$.| / ' / ! ^ / Q ~ W Y Y Y } 4.:.) Y Y Y Y F 4 7 F ~ ! ! ) _ _ _ _ ! G b ",
"k B R =.' h = > P 7.r.y.N.A.c.r.5.2.3.e.x.s.6.2.=.$.$.#.| X.} ` ` _ ! ~ W Y Y Y Y E  .3.;.) Y Y Y F 4 7 J ! ! ! / ' ` _ _ ! G b ",
"k B Y _ E I ~ =.8.e.r.y.N.A.c.9.2.3.e.v.d.6.2.1.*.$.$.| ..{ _ _ ( R ! W Y Y Y Y Y Y E  .3.;.) Y Y F 4 7 F ~ ! ! | $. .` _ ! G b ",
"k B I T R [ f.M.a.r.r.t.N.A.x.7.2.5.c.B.q.2.1.=.$.$.$.+.} ` _ / B k G Y Y Y Y Y Y Y Y E  .3.;.) T F 4 6 J ! ! E | 5.;.[ _ ! G b ",
"k B I R _ o.r.M.b.u.w.9.m.A.x.7.3.r.n.d.5.1.=.$.$.$.#.| ..] ^ N 1 # y F Y Y Y Y Y Y Y Y E  .3.;.[ J 6 8 F ~ ! A L $.` R _ ! G b ",
"k B U ] >.P ` 7.4.0.7.w.N.A.x.8.e.x.s.6.1.=.%.&.$.#.| ..{ / c , 4 & @ i J Y Y Y T R R T Y E X.5.#.L k d J ! ~ K M S P Q _ ! G b ",
"k B E 5.a.o.D R 1.7.9.8.m.A.c.i.x.s.6.1.-.%.,.7.-.| ..{ ( c > 4 l i & q S Y Y Y ~  .+.[ W Y [ 3.,.[ Z h D ~ ) ( ! ! / ) _ ! G b ",
"k B Q u.i.0.1.1.5.0.5.5.m.A.b.m.s.6.1.-.:.$.4.w.<.@.{ ( D 3 4 z H C u ; y F Y Y ! #.6.-.^ Y W ..2.3.Y j J _ _ _ _ _ _ _ _ ! G b ",
"k B W 0.t.r.e.8.9.5.2.5.m.A.n.M.q.1.-.:.&.L / +.Q ( ( B 3 5 z H Y I B , + y F Y A E *.o.Q Y Q ~ ..4.+.C K ` _ _ _ _ _ _ _ ! G b ",
"k B W 7.r.w.7.9.5.2.2.5.m.A.M.r.2.-.:.=.#.R C F W / C 1 4 z H Y Y Y S g - @ y F L C D Y T Y R ~ ~ ..2.R J ` _ _ _ _ _ _ _ ! G b ",
"k B W 7.e.7.9.5.2.2.2.5.m.B.t.2.-.:.=.%.$.O.{ / ( R f * d J Y Y Y Y I Z g - @ y F L K U Y Y ! Q ~ ` +.W U _ _ _ _ _ _ _ _ ! G b ",
"k B W 6.7.9.5.2.2.2.2.5.c.t.2.-.:.-.:.&.$.#.| ` R k , p G Y Y Y Y Y Y I Z g - @ i H T Y Y ! ! ~ ) _ ` ( ( _ _ _ _ _ _ _ _ ! G b ",
"k B E <.0.5.2.2.2.2.2.3.8.2.-.:.-.:.=.$.#.| .._ z > i H ! E Y Y Y Y Y Y I Z f - 9 S Y Y Y R ~ Q ^ _ ! ^ _ _ _ _ _ _ _ _ _ ! G b ",
"k B E 4.6.2.2.2.2.2.2.2.<.-.:.-.:.=.$.#.| X.[ G 3 5 A ~ W T Y Y Y Y Y Y Y I Z f 1 u F Y Y ! Q ~ ) ! ~ ) _ _ _ _ _ _ _ _ _ ! G b ",
"k B E ,.3.2.2.2.2.2.2.1.-.:.-.:.=.$.#.| ..[ R k e V ~ ! R T T T T T R R R R Y S h 2 u F ! ! ~ ) ! ~ ) _ _ _ _ _ _ _ _ _ _ ! G b ",
"k B R :.2.2.2.2.2.2.1.-.:.-.:.=.$.#.| X.{ E b m ^ &.:.=.+.o.o.o.o.o.%.-.-.-.-.*.' V 5 y J ^ ) ! ~ ) _ _ _ _ _ _ _ _ _ _ _ ! G b ",
"k B R :.2.2.2.2.2.1.-.:.-.:.=.$.$.$.O.}  .U ( 4.s.x.j.t.0.9.9.9.9.9.q.a.h.x.b.n.g.7.L 6 B _ ! ! ) _ _ _ _ _ _ _ _ _ _ _ _ ! G b ",
"k B R :.2.2.2.2.1.-.:.-.:.=.$.$.$.#.| ..| *.y.b.x.s.y.e.w.w.w.w.w.w.w.t.g.x.c.N.B.n.0.' ^ ~ ! Q / _ _ _ _ _ _ _ _ _ _ _ _ ! G b ",
"k B R :.2.2.3.2.-.:.-.:.=.$.$.$.#.| ..} X.O.;.*.@...' _ _ _ _ _ _ _ _ _ ] [ [ O.o.@.| ] ^ ! Q ~ ) _ _ _ _ _ _ _ _ ` _ _ _ ! G b ",
"k B R :.2.4.a.d.3.-.:.=.$.$.$.#.| ..| ..| ..} X.o.^ Y U U U U U U U U U U U Q W ' o.' Q ! Q ~ ) _ _ _ _ _ _ _ _ | +.} _ _ ! G b ",
"k B R :.1.-.t.v.e.,.=.$.$.$.#.| ..| ..| ..} ..;.4.{ T Y Y Y Y Y Y Y Y Y Y Y R ! #.5.*.` Q ~ ) _ _ _ _ _ _ _ _ } &.4.;.{ _ ! G b ",
"k B R :.:.P { ;.) @.%.$.$.#.| ..| ..| ..} _ J ) $.R P Y Y Y Y Y Y Y Y Y Y Y ! G ! ;._ Y ~ Q / _ _ _ _ _ _ _ _ I E =.{ W _ ! G b ",
"k B R ;.%.P C L ' @.$.$.#.| ..| ..| ..} ` ( A M G L U Y Y Y Y Y Y Y Y Y Y ! Q A M H P W ! ~ ) _ _ _ _ _ _ _ _ K m G P W _ ! G b ",
"k B T #.;.o. .{ @.#.#.@.} ..} ..} ..{ _ ) Q P H K U Y Y Y Y Y Y Y Y Y Y ! Q ~ Y U P W ! ! ) _ _ _ _ _ _ _ _ _ ^ R R ! ( _ ! G v ",
"k B I ~ ( ^ ) ^ ~ ~ ~ ~ W ! W ! W ! W E E Y Y Y Y Y Y Y Y Y Y Y Y Y Y Y R T R T R T R T R E E E E E E E E E E E E E E E E T G b ",
"k N Z A Z A Z A A A A A A A A A A A A A A A A A A A A A A A A A A A A A A A A A A A A A A A A A A A A A A A A A A A A A A A C v ",
"k z x x x x x x x x x x x x x x x x x x x x x x x x x x x x x x x x x x x x x x x x x x x x x x x x x x x x x x x x x x x x x l "
};
