/* XPM */
static char *_83c2f5431754ad4b05d55c67f6b78e2TzIRS4JVFNrIJX7d[] = {
/* columns rows colors chars-per-pixel */
"64 64 215 2 ",
"   c #020202",
".  c #0B0B05",
"X  c #070708",
"o  c #0C0C0C",
"O  c #141305",
"+  c #1D1C07",
"@  c #13130D",
"#  c #1B1B0C",
"$  c #0F0F11",
"%  c #131313",
"&  c #191913",
"*  c #171718",
"=  c #1B1B1B",
"-  c #201F17",
";  c #22220B",
":  c #28260E",
">  c #2D2C0C",
",  c #302F0E",
"<  c #39370E",
"1  c #242315",
"2  c #292914",
"3  c #24241D",
"4  c #2C2B1C",
"5  c #302F1B",
"6  c #343315",
"7  c #393713",
"8  c #3B3A14",
"9  c #34331C",
"0  c #39371B",
"q  c #3B3A1A",
"w  c #1F1F20",
"e  c #1F2021",
"r  c #242423",
"t  c #2B2B22",
"y  c #262728",
"u  c #2B2B2B",
"i  c #302F25",
"p  c #343424",
"a  c #383724",
"s  c #3B3A23",
"d  c #33332D",
"f  c #3B3A2C",
"g  c #2F2F31",
"h  c #333333",
"j  c #3C3B34",
"k  c #373738",
"l  c #3C3C3C",
"z  c #403E11",
"x  c #403F1C",
"c  c #403F26",
"v  c #403F2D",
"b  c #403F35",
"n  c #44430F",
"m  c #454313",
"M  c #484614",
"N  c #4D4A14",
"B  c #44421C",
"V  c #49471C",
"C  c #4D4A1C",
"Z  c #514E15",
"A  c #514E1C",
"S  c #555216",
"D  c #595517",
"F  c #5D5817",
"G  c #55521B",
"H  c #59561A",
"J  c #5D5A1A",
"K  c #605C17",
"L  c #615D1A",
"P  c #65621B",
"I  c #69651D",
"U  c #6E6A1E",
"Y  c #706D1F",
"T  c #73701F",
"R  c #454424",
"E  c #484624",
"W  c #4D4B23",
"Q  c #43422D",
"!  c #48462E",
"~  c #4D4B2B",
"^  c #514E22",
"/  c #514F2D",
"(  c #555224",
")  c #595625",
"_  c #5D5A23",
"`  c #55532B",
"'  c #59572B",
"]  c #5C5A2C",
"[  c #434334",
"{  c #4C4B33",
"}  c #44433C",
"|  c #484738",
" . c #4B4A3D",
".. c #514F34",
"X. c #514F3B",
"o. c #545333",
"O. c #585636",
"+. c #5D5B33",
"@. c #53523C",
"#. c #59573A",
"$. c #5D5B3A",
"%. c #615E25",
"&. c #615E2D",
"*. c #605E34",
"=. c #605F3D",
"-. c #646225",
";. c #696623",
":. c #6D6A22",
">. c #64622C",
",. c #696629",
"<. c #6C6B2D",
"1. c #716E22",
"2. c #716F29",
"3. c #757222",
"4. c #797623",
"5. c #7D7B25",
"6. c #75742A",
"7. c #787729",
"8. c #7C7B2C",
"9. c #646234",
"0. c #696631",
"q. c #6C6B34",
"w. c #64623B",
"e. c #69663B",
"r. c #6F6D3B",
"t. c #716F3B",
"y. c #747334",
"u. c #797735",
"i. c #7B7A33",
"p. c #75743B",
"a. c #7C7B3D",
"s. c #3F3F40",
"d. c #444443",
"f. c #4B4A44",
"g. c #474749",
"h. c #4C4C4B",
"j. c #504F42",
"k. c #504F49",
"l. c #545344",
"z. c #5C5B43",
"x. c #53524C",
"c. c #5E5D4C",
"v. c #4F4F50",
"b. c #545453",
"n. c #5B5B54",
"m. c #575758",
"M. c #5B5B5B",
"N. c #605F4E",
"B. c #605F59",
"V. c #636245",
"C. c #6E6D43",
"Z. c #63634C",
"A. c #6B6A4E",
"S. c #757343",
"D. c #797744",
"F. c #7B7A42",
"G. c #73724B",
"H. c #7B7A4A",
"J. c #626253",
"K. c #686757",
"L. c #6A6953",
"P. c #62625C",
"I. c #69695D",
"U. c #757555",
"Y. c #79775A",
"T. c #7B7A5D",
"R. c #636363",
"E. c #686761",
"W. c #6A6A64",
"Q. c #6C6C6C",
"!. c #737265",
"~. c #797862",
"^. c #72716B",
"/. c #7C7C6B",
"(. c #6F6F70",
"). c #737373",
"_. c #787876",
"`. c #797979",
"'. c #817E26",
"]. c #827F2C",
"[. c #848227",
"{. c #898527",
"}. c #84832A",
"|. c #898629",
" X c #8D8B2A",
".X c #918E2B",
"XX c #93912C",
"oX c #9A952E",
"OX c #828132",
"+X c #8B8A35",
"@X c #868439",
"#X c #8B8A3E",
"$X c #939133",
"%X c #9D9C31",
"&X c #9B963C",
"*X c #9E993C",
"=X c #A39D32",
"-X c #A49F3C",
";X c #ABA538",
":X c #ABA53A",
">X c #B3AB36",
",X c #B4AD3C",
"<X c #B8AF3B",
"1X c #BFB73B",
"2X c #C4BB3D",
"3X c #8A8A47",
"4X c #938E46",
"5X c #979447",
"6X c #898654",
"7X c #A29D4C",
"8X c #A19B51",
"9X c #AAA446",
"0X c #858469",
"qX c #858472",
"wX c #7F7F80",
/* pixels */
"u u u u u u u u u u u h [ v Q v Q v Q f h k v v v b j y r u h f Q b b v Q v [ f f h u r u u u u y u u u u u u u u u u u u u u u ",
"u u u u u u u u y u u I.7X,X,X,X,X,X,X&XK.^.7X,X,X,XT.e   k M.F.*X>X:X:X:X;X;X$X6.o.h % % r y t 4 t t 3 r r u u u u y u u u u u ",
"y r r r r y r r $ r y ~.0X9X>X,X>X>X>XG.Q.).qX7X>X:XV.%   k Q.I.c.@XC.c.2.4.4.3.` k %     t ] :.:.;.J G ! s.s.d t t 4 t r r y r ",
"g. .f.f.g.g.d.l $ r i 5X0XOX[.[.[.{.].N.W._._.y.T '.{ $   g.).Q.b.x.x.b.~ Z D D  .h o     x |.=X=XoX.X}.Y.^.I.e.;.;.J G / f.g.g.",
"!.p.8.i.~.n.d.s.$ e i :XU.<.Y K H J ;.l.P.I.n.` D I v o   k Q.W.b.h.M.B.k.( M Z { h $     m oXoX'.1.3.G.^.6X&X=X=XoX.X X}.U._.).",
"b.z.7.[.8.( j l $ = i -XA.,.J S [  .( n.m.9.l.} W D p X   = b.a.L.B.b.M.h.d j R p u o     m oX|.:.+.N.n.F.6Xt.4.4.3.3.5.}.G.M.n.",
"P.Q.' 4.:.P m t X * t -XA.>.F G  .k.( l.b.&.l.h.b ^ 5 o   = j <.z.r.z.h.h.g.v.R 4 $     ; Z [.[.+.m.F.$X|.w.o.P Y U L J w.R.C.C.",
"m.).I.,.Z S m y X X 4 -XL.j.G S j.M.`  .d.( l.M.k.^ 5 = X * 6 A ..<.Z.h.g.b.M.g.y X     < S '.5.N.b.a..X4.$.! H U P $.+.{ b.$.w.",
"v.W.n.G m B f u X   3 -XL.M.) G f.M.~ f.h.k.h.h.M.( p = = = 3 7 8 z p r r * $ o X     % G x <.3...m.q.' &...g./ L L ../ o.M.M.n.",
"R.R.P.E | f.k u X   3 +XZ.B.,.D  .h.j.h.h.h.h.m.b.^ f % = w w @ . . X               & -.I 9 ( S ! *.G  .*.*.b.{ Z D { ! { b.b.b.",
"b.v.b.x.b.g.y =     3 ].N.x.-.D  .l g.b.M.m.M.m.n.E p o X * w X       O O . X . O - -.;.q 0 N q W L / v.e.o.g.h.` M Q b.k.b.b.g.",
"g.g.g.g.g.d r =     3 ^ x.M.^ A  .l l m.m.h.h.d.b.f.k X   * r = 3 3 %.=X1X8.z.4X<X=X4.B E N 9 k Q m v l c s g h s 0 h b l l l k ",
"k k k k h = o       r t x.W.f.B } x.] l.b.M.d.d.+.l.h o     = k <.:X2X2X>XC.R./.9X:X|.;.q 3 d s.j j g y r r y u u u u g g u g u ",
"r r r u y X       X r y m.Q.m.} b &.L  .g.b.v.x.) [ d o     X f.9X1X.X|.|.$.h.P.t.$.Q 1 . X o o o * e - - w - w - e e w e e e e ",
"  X X X .           r r g.Q.R.b.m.) G b g.b h.M.` p u o     % b.5X{.w.y.}.=.h.h.&.! 9 2 o         X X X X X X X o X X X X X . X ",
"X   X     .     X   r r d.Q.R.M.n.( S  .m.h.m.n.E d l r X   * x.#XU l.n.i.8.z.h.( s r q 5 - r t r r $ $ = = w = w = w - = e = = ",
"g.f.g.| H J H V j o X r d Q.).$.l.( m A | g.b.h.j k h u X   * b.3XU l.P.p.4.#.b.~ p % > Z ,.3.6.L a e r g f.f.k.h.v.k.k.k.k.x.h.",
").).^.3XXX XY C } o   r r h.^.~ | ( R C A x.M.m.g.d.} u X   = x.#XI j.m.q.S | m.l.h o   O J }.4.L : % g m.6X+XOXU.6X*X*X*X*X&X6X",
"W.M.n.].4.4.U N b.%   r r s.m.f.f.( j B m  .b.h.k d.h r X   * x.9.O.h.h.E n b l h u $     M I I L + % l H.%X Xe.w.}. X X.X.X4.] ",
"R.h.J.8.T U I V } o X = u u h.v.f.W f t 3 u d.h l h r o     X g.x.f.g.d.i 3 t r w %     = ) K H E & % s.a.XXe.x.9.Y 3.1.1.3.L E ",
"P.p.Z.8.T U U M i X   = u r k h g t r w w r % X o o X         h g.g y y @ X X X X       r ] K N f * % l p.9.f.b.e.U U 1.U U L E ",
"K.q.Z.i.Y U I M t X   = y e $ o . X X . X X                   $ u & o . X               u *.K q g * % k r.*.b.M.B.l.' L D I D c ",
"x.-. .{ ;.J P M t X   X y u - .   .             % = = = = - = d } } ) I I P I c r X   = M.t.K m p % % k q.w.h.b.b.O.;.C x P S q ",
"f.( j j -.N M f r     X j <.8.4.3.4.;.l.l u X % d ) 7.].].8.A.F.i.<.8.[.[.4.3.,.G #   r R.S.K S s $ $ d ] +.v.v.b.e.Y B i ` D s ",
"h.l.m.n.;.M [ k r X   . -.$X X|.|.|.4.c.v.= = r ( |.%X6X@X5.i.5.I J U T T P I K M +   u Q.S.K M 9 o % s L O.b.m.=.:.D 6 b ..0 i ",
"b.M.n.b.W  .g.u o     . 5.'.3.P P J J W x.* r r J XX XV.<.P K J S S D J H N M m 0 o   u ).D.K q r o % V V l d.{ J D N 4 l d.h k ",
"l d.s.l j h y o       . 5.4.K S S S S m [ % = r _ XX|.OXT N c A N Z S S S M s x 4 X   u ).H.F 9 = o $ 4 & = y 4 4 t 4 3 r u u g ",
"u r r % o o .         . 5.4.D S S S S m d o & r _ XX|.1.U N f W R C S N Z M f q 4 X   g _.H.F 9 e o X X   X X X X X X X X X o * ",
"o X X       % = * = * 3 '.3.N Q G S S m f o . = J XX|.D L N f W  .) S R C M f t r X   x /.H.K 9 y $   + O     + O               ",
"= u u h k l s.l } k r # 8.3.Q } G S S m j =   = A '.[.O.-.N f W -.H S Q C M f y = o   M 0XH.K 9 y % + < M S S x 6 m n > 1 o     ",
"h g.J.y.y.y.6.y.9.n.l @ U L j f.V S S m f r X = N I 3.@.&.N f W J D N f C M f y 3 o + D Y.D.K 9 y % @ 7 J Y :.:.7.[.I q 4 = * = ",
"l P.F.3.I P P P J n.h @ Z s k b.f.G S m d r X = f ( Z  .) Q j x S S n [ ( M f y = = @ N Y.S.J 9 y $ % d ) H P Y [.[.5.:.G [ r * ",
"b p.3.L Z N M S A v d.* B.v.b.M.M.) G m f r X X u q ! x.j.l } j C S R l W m f g & X X M Y.S.F 9 y % % s.l.[ ) Y I P H S N Q e % ",
"} 4.Y D M l.| A Z u s.* (.M.b.m.B.) S m d r X   r [ n.R.#.l.o.| E Z Q l ^ S H p o   + R E.#.S 9 y @ % b.Q.h.+.F S S q p [ b = $ ",
"[ 7.Y S V x.B.2.S t u % W.R.M.M.n.( S 6 h r X   r d.)._.] ) N f. .C Q h.&.D B t X o V X.R.M.` m 4 o $ b.Q.m.] S q V q h h.g.= o ",
"[ 7.Y D M x.p.3.D 4 y % R._.M.m.g.A S 4 h r X   = l (.`.*.M R h.h.E f 9.1.S 4 $ X % 5 } R.R.~ 0 3 o % b.Q.b.*.S p E 9 h b.g.& o ",
"j %.I S Z ( L K A t r $ R.`.b.v.b.C Z t h r * X = h R._.o.R b.b.m.| E ;.H m 2 o   X & h m.v.s 4 w o % h.W.b.$.J ! / q h b.s.*   ",
"b K.%.N Z N S D Z 4 y $ R.`.m.M.b.| A 5 h r w X X r h.).J.f.g...~ d 4 9 4 4 3 o     % u y & 1 3 w = = l g.h p s d d i g k h %   ",
"} (.K.X.^ #.G S Z t r $ k.).M.b.M.M.( t h u = X   w u h.b...p t 4 3 o = 5 3 w o     * y = ; 6 4 4 i y = $ o o $ $ $ o o o o X   ",
"s.).(.x.( N.) N Z t r o l ^.e.x.R.B.( 4 h u r X   = r = * # @ X X : O X , 8 3 * X % = y 9 8 6 3 3 q B 2 % * X                   ",
"d.).(.n.W l.A 0 M t y o u ).0.N.M.b.^ 5 h g - X   = e * X         < 2 % 3 m M q > 6 q M n 6 u u h q N G ( G s y r r t r r r % o ",
"d.(.(.m.x.n.( 8 C 4 r o r _.*.l.=.l.^ t h g r * X X r d r r r r y _ G p g p N J I P H N ..n.M.R.R.p.[. X X XOXi.i.i.y.) | s.= % ",
"b Q.(.M.R.n.G M Z 3 $   3 ^.' l.&.@.^ 4 h g r e X   ( L.R.R.Q.R.S. X|.,.J.M.p.|.XX X|.5.@X3X3X4X4X&X%X%X%X%X%X%X%X%XXXT _ [ = $ ",
"s.Q.Q.C.B.x.A z 0 r X   r ).x.n.W f.^ 5 d u r 4 & . -.5X8X8X8X8X:X:X%X|.Y.wX0X#X X X XXX X.X X X X X X X X X X|. X|.1.P ^ j & o ",
"} (.!.q.x.m.G m k u X   w (.R.M.f x.( 4 h g r 4 6 7 I  X=XoX|.{.|.|.'.4.>.n.Q.~.u.4.4.3.U J H H P 1.3.3.3.4.T 4.3.I E s j h * X ",
"k Q.B.,.N.x.V 9 } u X   w R.M.b.v.x.^ 4 h u % = 8 m q $.}.0.-.K I ;.P I J [ m.Q.e.P I U S q p f C P :.U I I ) %.P S 0 h f.k %   ",
"y R.B.,.+.f.p u g *     w R.M.v.v.m.E 4 h i o * 0 , r v.Z.l.>.S P U S P K ! b.n.>.S J I N p d.g. .) I Y S J o.' H n s d.h.k *   ",
"y g.f.J M h g u y X     e b.B.m.h.k.f y k u o * 4 6 % b.R.M.,.Z P U N J S f #.Z.` R _ S q f d.b.M.j.%.I N H ,.,.S q j h.b.k %   ",
"- * * z 5 u u u y X   $ r l g.g.d.k h h h u X X = 4 > n.).Q.q.N K 1.N S q d _ ] ! } &.Z i l $.p.L.M.w.D B W D P S 9 k d.g.l *   ",
"y = - x 3 % % % $     & $ % % * % * = * % o     o = 4 f.Q.).q.Z S K N 9 3 g W n b v.>.Z a h.9.K ..b.9.S Q E B W N s h h s.k %   ",
"r r t H 8 ; %         =                           X $ k M.P.&.E s 9 s d d h f.l.f.g.` N f h.~ n v v.*.N [ f.f.{ 7 d l g.h.k *   ",
"r u f.6.U I C i e % % e X                             u h y 5 = $ = y u g s.h.v.d.s.R 8 d l j s j g.~ 8 j d.h.[ d h l d.d.h %   ",
"y k.D. XoXXX5.q.9.' f.l u r = %                     $ r r * o     X o o $ y h h d h 4 3 u h h h h h t 3 u h h h h h h h h u %   ",
"y B.}.oX}.r.7.4.4.5.p.r.p.y.q.,.J J H H H C N 2 e r u g u r * % % % @ X   X % 3 y r e e r r r r r r r e r r r r r r r r r = X X ",
"u n.OXXX:.l.6.Y U P 9.3.[.[.[.[.[.[.[.[.[.5.4.&.~ j.M.b.h.h.g.g.l u r * X     X $ 2 3 & o o $ o $ o * e * o o o o $ o o o X X = ",
"y N.OX X:.l.7.Y U G  .o.1.Y U ] ,.Y U D J I U U J j.)._.).).Q.(.h.= = y & % $ X + < # X             # 4 o               X @ * r ",
"u B.U.}.:.l.6.9.;.H f.f.7.T :.>.:.4.1.G E :.3.U J  .R.W.Q.Q.Q.M.s.% X r r 9 ( C P W - $ % * * * # < S N > ; @ % % o % % = u y u ",
"u M.^.e.;.j.O. .-.S f.n.i.T P I 9.8.1.D  .6.K I J  .M.m.M.R.R.g.h o   = r G U U :.o.h.b.v.k u R ;.|. X[.4.4._ q d g.h.g.h u r u ",
"y M.M.g.{ } k j G q l k.-.W E {  .-.C Q f.~ N J A [ h.g.g.h.h.k y X   X = .._ S N | R._.).h.u >.|.5.5.[.[.5.U J C l.R.M.M.h.r = ",
"y h.d.u u u u u 9 r y u 9 3 u u u 9 3 u u r 9 0 6 u u u u u u r r X     & h.] N E h.R.W.M.g.u 2.4.` %.I ] ( ( ) Z Q h.m.R.M.= % ",
"r r = o o % o o % o o o $ o $ % = r r r = r r = w % o $ o o % o o       & g a 9 d l h.h.d.l y V.G.x.9.P {  .f./ M Q m.m.v.d.% % ",
"r o                             X $ = = * $ = r %                       o % = w * * = = = = % k h.d.E M f k k E 8 d d.d.l h % % ",
"u r * * % o % o o % o %             = = X   = = X                         = y y * $ X         = u = 1 3 = % % 1 2 = % % % * X % ",
"h g h h u u u u u u u u = * * * = = r u = * r u = * * * * * * = * * * & = u h g u u = & * * = y h r r u w * * r u w * & * * = r "
};
