/* XPM */
static char *_c2a63c50fd04b80992e913f7fd49064MZaHjnPP4uH0AqIR[] = {
/* columns rows colors chars-per-pixel */
"64 64 225 2 ",
"   c #464646",
".  c gray31",
"X  c #505050",
"o  c #373737",
"O  c gray15",
"+  c #252525",
"@  c #232323",
"#  c #3A3A3A",
"$  c gray30",
"%  c gray29",
"&  c #4E4E4E",
"*  c #4C4C4C",
"=  c #979797",
"-  c gray71",
";  c #B4B4B4",
":  c gray70",
">  c #AAAAAA",
",  c gray64",
"<  c #8E8E8E",
"1  c #686868",
"2  c #3C3C3C",
"3  c #515151",
"4  c #717171",
"5  c #9A9A9A",
"6  c #A9A9A9",
"7  c gray69",
"8  c #ACACAC",
"9  c #9D9D9D",
"0  c gray51",
"q  c gray38",
"w  c gray28",
"e  c #494949",
"r  c gray33",
"t  c gray36",
"y  c #797979",
"u  c #9F9F9F",
"i  c #898989",
"p  c gray49",
"a  c #767676",
"s  c #676767",
"d  c gray37",
"f  c #535353",
"g  c #E1E1E1",
"h  c gray87",
"j  c #D0D0D0",
"k  c #CACACA",
"l  c #CBCBCB",
"z  c #A2A2A2",
"x  c #6D6D6D",
"c  c gray23",
"v  c #727272",
"b  c LightGray",
"n  c #D5D5D5",
"m  c gray83",
"M  c gray80",
"N  c #B2B2B2",
"B  c #868686",
"V  c gray25",
"C  c gray44",
"Z  c #AFAFAF",
"A  c #DDDDDD",
"S  c #DADADA",
"D  c #D2D2D2",
"F  c gray79",
"G  c #C5C5C5",
"H  c #C1C1C1",
"J  c #BBBBBB",
"K  c #B7B7B7",
"L  c gray68",
"P  c #A4A4A4",
"I  c gray57",
"U  c #CECECE",
"Y  c gray63",
"T  c gray67",
"R  c gray66",
"E  c #A7A7A7",
"W  c #777777",
"Q  c #565656",
"!  c gray21",
"~  c #888888",
"^  c gray47",
"/  c #3E3E3E",
"(  c #4B4B4B",
")  c gray53",
"_  c gray85",
"`  c #C8C8C8",
"'  c #CDCDCD",
"]  c #D8D8D8",
"[  c gainsboro",
"{  c gray81",
"}  c #B6B6B6",
"|  c #A0A0A0",
" . c #929292",
".. c #909090",
"X. c gray60",
"o. c #9B9B9B",
"O. c #747474",
"+. c gray59",
"@. c #989898",
"#. c gray62",
"$. c #818181",
"%. c #606060",
"&. c #3F3F3F",
"*. c gray56",
"=. c #DFDFDF",
"-. c gray77",
";. c gray61",
":. c #A5A5A5",
">. c gray72",
",. c gray65",
"<. c gray35",
"1. c #959595",
"2. c #939393",
"3. c gray58",
"4. c #7B7B7B",
"5. c #BCBCBC",
"6. c #AEAEAE",
"7. c #848484",
"8. c #C3C3C3",
"9. c gray54",
"0. c #8D8D8D",
"q. c #8B8B8B",
"w. c gray74",
"e. c #646464",
"r. c gray50",
"t. c #5D5D5D",
"y. c gray76",
"u. c gray55",
"i. c gray52",
"p. c gray40",
"a. c #808080",
"s. c #7E7E7E",
"d. c #838383",
"f. c #7C7C7C",
"g. c #6A6A6A",
"h. c gray22",
"j. c #656565",
"k. c #353535",
"l. c gray48",
"z. c gray46",
"x. c #6C6C6C",
"c. c gray42",
"v. c gray14",
"b. c gray34",
"n. c #444444",
"m. c DimGray",
"M. c gray18",
"N. c gray45",
"B. c gray26",
"V. c gray43",
"C. c #484848",
"Z. c gray20",
"A. c #323232",
"S. c #2F2F2F",
"D. c #2D2D2D",
"F. c gray19",
"G. c gray24",
"H. c #555555",
"J. c #626262",
"K. c #6F6F6F",
"L. c gray17",
"P. c #343434",
"I. c gray73",
"U. c gray16",
"Y. c #272727",
"T. c #222222",
"R. c gray12",
"E. c #1E1E1E",
"W. c gray13",
"Q. c #5A5A5A",
"!. c gray27",
"~. c #313131",
"^. c #2A2A2A",
"/. c #434343",
"(. c #414141",
"). c #393939",
"_. c gray32",
"`. c #5B5B5B",
"'. c #C6C6C6",
"]. c gray84",
"[. c #B9B9B9",
"{. c gray82",
"}. c #C0C0C0",
"|. c gray78",
" X c gray",
".X c gray86",
"XX c #2C2C2C",
"oX c #585858",
"OX c #282828",
"+X c gray39",
"@X c #B1B1B1",
"#X c #181818",
"$X c #1D1D1D",
"%X c #202020",
"&X c #D7D7D7",
"*X c gray11",
"=X c #5F5F5F",
"-X c gray75",
";X c #464645",
":X c #282827",
">X c #292828",
",X c #282727",
"<X c #3E3D3D",
"1X c #4D4D4C",
"2X c #474746",
"3X c #3D3C3C",
"4X c #333332",
"5X c #30302F",
"6X c #4C4C4B",
"7X c #303240",
"8X c #2C2F44",
"9X c #2D2F43",
"0X c #2D2F44",
"qX c #2D3044",
"wX c #2E3045",
"eX c #33343D",
"rX c #383837",
"tX c #32333E",
"yX c #32333F",
"uX c #393938",
"iX c #34353D",
"pX c #323341",
"aX c #35363D",
"sX c #303242",
"dX c white",
/* pixels */
"  . . . . . . . . . . . . . . . . . X o O O + @ # $ $ . %               % & $ * * * $ $ . . . . & & $ $ $ * * * * * * * * * * * ",
"$ = - ; : : : : : : : : : : : : : : : > , < 1 o 2 3 4 5 6 7 7 7 7 7 7 8 9 0 q w e r t y u ; ; 8 5 i p a s d r . & & & & & & & . ",
"f - g h j k k k k k k k k k k k k k k l l z x # c v 7 b n n n n n n n m M N B f V & C Z n h A S D F G H J K N Z Z Z 7 L P 9 5 I ",
"t : h U > Y T Z Z Z Z R T Z , E P E Z Z P W Q ! c ~ l b : > > > ; ; > > - z ^ & / ( ) n _ ` 7 L 7 : F ' ] A A h h h A [ ] n b { ",
"t N j } , |  ...Y R | | u , z 9 9 X.< ..o.O.f ! c i H N +.@.9 X.#.#.X., u $.%.w &.( *.=.-.o.@.5 ..I ;.:.Z :.:.T >.N :.T >.: ,.6 ",
"<.| H z Y ;.= i 5 ;.+.o.1.2.*. .= o...3.5 4.t ! c i 5.6.+.5 ;.5 5 5 5 1.5 7.t w &.( < h 8.+...I *.I  .o.I  .= 9.0.@.= q.0.= @.0.",
"<.= w.z Y z X.@.= *.< 1.+.*.$.0.;.X... ...$.e.! c i w.> 5 P #.3.....I 1.o.r.t.w &.( < S y.9 u.q.I o.o. .*.3.X.X.3.o.X.X.2.o.X.;.",
"Q i.- | @.X.o.X.o.@.5 5 u 5 ..*.3.....*...) p.! c i w.P 5 , +.< B a.*.o.1.s.t.w &.( < _ J +.u.u.1.#. .*.*.d.*., 5 #.z , 5 #.@.< ",
"f f.7 9 <  .1.*. . .3. .X.+...X.2...= I 2.*.g.! c i 5.6.9 +.< u.7.4.i I < f.t.w &.( < _ } i B *.;.9 u.< i r.q.5 ;.@.z 5 ;.@.9 9.",
"h.j.8 6 I 3.;.#.= < I 5 1. .*.= @.9 @. . .< x k.c i w.>  .= 1...0.9.I q.) l.t.w &.( < _ ; u.1.X. .X.5 I 9.*.o.3.1.= 5 3.1.= 5 2.",
"O * , :.3. .| 9  .2.9 o.*.*.) *.u o.3. .< u.x k.c i w.P 3.o.u.i @.@.I B 0.7.t.w &.( < _ : 1.#.5 = ..3. .I ..= 3.) s.4.z.C x.x.c.",
"v.  u = = | @.3.< 3., z = *.0.5 o...<  .3...x k.c i 5.6.X.5 I  .o.I q. .X.4.b.n.# ( < _ J o. .i s.v v C c.1 m.c.j.t.t <.b.3 ( e ",
"M.% $.N.x N.x.c.4 4.~ 0.3.;.Y o.5 2.+.Y @.~ 1 ! o B w.> ..I 1.1.5 ..*.o.+.a r B.h.( *.n T p V.e.t <.<.b.f f X ( C.B.&.h.Z.A.S.D.",
"F.k.G.o A.2 C.* H.t q J.m.v O.x K.x K.O.x j.* L.P.d.w.P q.1.o.1.#.@.< 1.2.z.r B.h.( ) I.7.t X B.&.h.Z.Z.Z.Z.A.S.D.U.Y.T.R.R.R.R.",
"/ ! T.E.R.O D.S.o c c # # # # # # # # # # c M.W.k.d.w.6.3. .*.*.@.5 1.< q.x r B.h.% Q.t.&.Z.S.U.Y.T.R.R.R.R.R.T.Y.U.M.S.S.S.A.# ",
"x.1 H.!.# ~.M.v.T.v.v.v.v.v.v.v.v.v.v.v.v.v.^.S.2 d.w.T 1.*.I @.1.1.+...s.q 3 G.h.C.w /./ &.&.&.&.&.V V V V V (.!.  % e . t x.7.",
"6.I.; u  .d.C d w / &.&.# o h.~.M.U.T.R.R.R.M.).V d.w.R I i I @.I i 7.< p t . c h.( _.H.H.r `.x.d.9 R R R z *.g.% r t 4 ~ > '.b ",
"k =.h ].b M H [.8 ,.E E , z z #.o.@.2.) ^ 3 S.~.V d.w.7 +.u.< = 1.7.4.9.a.t . c h.& X %.d.= T } '.{.` }.[.T  .t.(.d 7.6.|.j { U ",
"T  X|.M b .Xh h h =.=.=.=.=.=.=.=.=.].}.;.1 Z.XXV d.w.; 9  .= 5  .~ i ..W b.% ! h.$ J.+.-.-.>.- >.Z E +.@.= ^ % V c.L b b |.- R ",
"i , Z N 7 6.y.M 8.|.8.'.` }.K I. X>.: z a oX! OXG.d.w.T ;.5 1.5 3.3.= @.4.f w A.h.* 0 { ` Y @.5  . .= < 1.1.y % V N.y.b 5.Z , ;.",
"0.5 = =  .= P P u | :.6.P 9 u 5 Y , o.5 v f ! + # d.w.R @.Y I 0.+.+. .2.^ r C.A.h.( *.=.I.0.;.| 2. .*.3.5 0.y % V W F D 7 @.1. .",
"9.....< ..z , 9 u = 1.@.5 1.u =  .9 3.2.4 f ! O c d.w.7 Y ;.= ..9.i.9.I 4 r n.M.h.* 7.{.J 0.o.u I  ...2.@.0.y !.o a ` { E < *.0.",
"a.@.| 2.5 | :.#.9 Y #.+.+.I @.3.1.1.< ..V.f ! T.o d.w.; | 5 5 2.d.4.B ..v r &.Y.h.* z.w. X*.I 2.<  .+.@.1.5 s.B.D.W m |.= +.;.o.",
"0.5 X.o.5 @.@...*.+., 5 =  .*.< 3.1.< X.z.f # T.F.r.w.T I  . .*.u.i.~ 1.4.r 2 v.h.$ p.6  X*.q.< 1.2.I 3.I = p B.L.^ [ ` X.+.9 = ",
"9.;.I 1.1. .@.+.< +.#.= | = q.u.1.+.< 9 ^ f / v.XXf.w.P 2.*.0 9.*.3.3.*.O.r 2 v.h.$ r  .5.< +.@.I +.+.u. .5 s.B.L.^ [ |.o.o.= 2.",
"+XW v x f.r...1.*.1.1. .= I u.0.1. .u.q.c.f G.v.XXf.w.L 5 +...) ) 2.2.i x r 2 v.h.& * ) 5.1.u I $.f.a V.N.y g.B.L.y b 6.0 ^ N.N.",
"( r r r t.q g.V.V.V.V.V.V.V.V.V.V.V.V.p.<.r / v.XXf.w.8 5 5 +.q...3.2.1.v r 2 v.h.& $ a = O.a c.j.Q n.n.n.n.!.h.XXC @X7.q r f r ",
"F.).h.h.h.(.!.!.!.!.!.!.!.!.!.!.!.!.!.!.!.  o + XXf.w.P  .5 = 9.< 2. .= z.r 2 v.h.& . *   o o o h.Z.L.L.L.^.L.Y.+ (.oX!.h.h.h.h.",
"#XR.R.R.R.Y.L.L.L.L.L.L.L.L.L.L.L.L.L.L.L.L.OXT.XXf.w.L 5 5 +. .*.*. .2.z.3 ).v.h.& . c L.L.L.XXU.+ + + OXXXXXXXOXE.$XE.E.R.R.R.",
"P.c ! S.XXOX+ + W.R.R.R.R.R.R.R.R.R.R.R.R.R.%XR.XXf.w.E 1.+. .+.+.1.X.i s . ! v.h.& _.(     !.!./.&.&.&.(.!.!.!.(.).).).# ! ~.c ",
"$ H.X C.(.# h.h.P.A.A.A.A.A.A.A.A.A.A.A.Z.OXY.XX).0 w.| < +.1. .*.*.i.V.H.C.~.Y.2 $ r <.V.7.I 5 5 5 5 5 5 5 5 5 5 5 o.+.9.m.# e ",
"* H.d z.r.u.2.2.2.2.2.2.2.2.2.2.2.2.2.3.i.  XX(.$ i 5.8 5 5 X.2.0 C J.3 V Z.O ^.B.3 <.N., F ].=.=.=.=.=.=.=.=.=.=.=..XF 8 4 S.h.",
"( 3 l.: F ] =.=.=.=.=.=.=.=.=.=.=.=.=.j ,.& L.C.r ~ 5.L < *.+.i.g.H.% # OXT.v.o * r d  .U ] k w.; ; ; I.w.; ; [.w.I.I.u $.X OXZ.",
"% & ..j j -.8.8.[.w.I.w.8.I.w.I.w.J w., C h.XXC.f ~ w.P B *.o.4.r C.! + v.F.G.( f f g.6.h |.Y 5 2.9...X.3.9.*.;.@...+.r.Q.c T.S.",
"% & Y &X: P #., #.z 1.9 ,  .3.X.X.I 3.y _.F.D.C.f ~ 5.8  .2.;.W e ! L.F.* p = I 4 _.f.'.] } <  .o.3. .1.< 1.5 @.1.1.u.4.* ~.%X^.",
"w . 7 h 6.9 = = u 9 5 #.= = I 1. .3. .c.C.D.D.C.f ~ 5.8 +.*.0.C   L.F.c.E M _ 8.B 3 ~ ].'.Y 2.< 1.@.*.q.< @.X...;.u @.r.$ ~.%X^.",
"/.. Z h 7 @.3.= 1. .@.+. .@. .q.3.#.1.c./.U.D.C.f ~ w.8 1.~ f.s V +   R ' w. X, N.3 < =.I.2.@.I 2.2.9 = *.< ..2.#.X.o.d.$ ~.%X^.",
"n.. 7 U #...= o.I ..< u...< *.+.o.+. .V./.^.D.C.f ~ 5.L +.p +X_.Z.*X1 H 7 o.Y 0 oX. q.=.I.3.#.X.1.o.,.Y @.< *.< 3.+.= ~ $ ~.%X^.",
"/.. u Y d.a.2.I *.< 3.I 3.I @.#.5 I I K./.^.D.C.f ~ w.E  .4.`.  L.k.+.'.P 9 = m./.* ) h H +.+.@. .+.5 o.#.o.9 X.X.+.o.< $ ~.%X^.",
"w $ C V.+Xq z. .u 3.= 2.= o.;.2.5 +.p q /.^.D.C.f ~ I.6 i c.<.n.Y.%.5.I.| 5 q.Q./ $ ) h H 5 2.q.I X.+. .5 P | P 9 9 o.B $ ~.%X^.",
"* * w w V h._.^ 7.y N.O.O.s.l.N.^ W q 3 B.^.D.C.f ~ } 5 x oX& o %Xz. X, | o.p n.! $ ) h }.u , 2.= P 5 X.5 5 ;.#.5 #.o.4.$ ~.%X^.",
"( . w /.A.T.S.B.C.C.C.C.C.C.C.C.C.C.C.n.! + D.C.f i - 7.b.& G.U.T.d. Xo.9 = W c o $ ) h y.#.u o.5 5 5 ;.+. .o.5 @. .+.7.$ ~.%X^.",
"% H.r r e A.T.OXD.D.D.D.D.D.D.D.D.D.D.D.+ R.D.C.r ) o.e.C.G.XXT.F.f.@X,.o.3.W c o $ ) =.J < 2.= = 2.= 0.0.0.*.2.2. .*.s.$ ~.%X^.",
"w H.r r r e A.U.O v.v.v.v.v.v.v.v.v.v.v.v.v.S.C.& +X%.2 F.^.T.v.&.r g.y x.N.x.2 o $ ~ ] ; q.r.y z.z.z.z.z.z.z.W l.z.C %.* ~.%X^.",
"n.r . $ 3 _.w B./ 2 G.G.G.G.G.G.G.G.G.G.G.G.(.w &.~.D.^.T.v.F.G.$ !.k.^.+ k.&.F.o $ 0 }.9 4.<.C.C.C.C.C.C.C.C.C.C.C.e e n.~.%X^.",
"!.1 a ^ p r.f.v +XQ.r _._.f f r r r r r 3 $ $ /.2 P.D.M.D.k.!.$ $ & B.k.F.U.v.E.o ( t.W t.e h.M.M.M.M.M.M.M.M.M.M.M.M.M.M.^.@ A.",
"  ..8.M M M |.[., +.< 9.d.O.e.Q f r r 3 %.l.7.7.7.7.7.7.7.7.7.7.y s %.Q !.2 ).P./.C.h.S.T.R.%X%X%X%X%X%X%X%X%X%X%X%X%X%XR.T.D.G.",
"  Y ].A S ] _ _ _ _ _ _ U >.| B +X$ . * q.{.] D D D D D D D D b ` } :.*.d.y p.Q & n.G.(.P.Y.v.v.v.v.v.v.v.v.v.v.v.v.v.v.+ D.c   ",
"  Y n S -.K } - - w.H w.K w.J z x B.C.* #._ 5.@X7 N K ; 6.6.; @XI.8.|.b b -., i.m.% n.$ w V c c ).k.k.k.k.k.o h.k.k.k.k.o 2 B.( ",
"  Y D -.u 0.*.1.= z P X.< = 2.N.Q./.C.* #.{ P 9 u 5 , 9 1.o.#.5 5 3.o.8 @XN N : | $.t.G.).& r <.p.x.x.x.x.c.V.C x.x.x.x.c.x.1 3 ",
"  Y M ,...3.3.5 9 | X.< 2...u.O.Q./ n.$ #.{ ,.o.| 5 5 5 5 #.3.1. .9.< I | o.3.1.o., a ).U./.<.v #.5.w.w.w.w.w.w.5.w.w.w.w.J #.%.",
"  Y M R 2.Y 9 *.2.@...2.o.1.9.V.3 F./ $ #.{ z *.1.o.3.1.1.< < u.u.1.o.= 5 5 I u.*.s.=X/ U./.g.#.` ].G 8.'.-X-Xy.F '. Xy.'.J 2.* ",
"C.Y M - o.#.u 1.X.= < = X.1.0 q /.U./ f z { z q.X.= u.u.u.2. .q.5 ,.| 1...u #...1.4.r / U.B.z.w.S -Xo.X.= u.q.+.:.;.2. .;.3.f.( ",
"* | M L | @.1.1.1... ...5 1.l.d V Y./ %.8 U R ..0.0.< < < *.9.q.5 Y = o.6 , #.X...N.H./ U.B.z. Xl :.X.o. ...3.1.= +.u 0.1.;.d.( ",
"$ | M R 2.I X. .@.+.X.X.3.I l.t.).v.V x - U 6 I i.u.@.I ..~ 4.) +.o.#.#.| 5 o.;.4.d X h.XX!.z. Xw.1.5 = u 1.o.I 0.1.o.1.3.5 i * ",
". | M 6.@.3.I 0.u.I *.@.X.1.a b.A.U.!.r.8.U ;.~ 2.5 X.1.I B B <  .1.;.9 1.@.#.;.y r e D.F.( z.J >...I 1.| +.*...+.2.+.5 = X.N.( ",
". | M Y = 1. .*.u.u.u.u.@.2.K.X S.M.  < j F u +.| o.I = @.< +.9 1.@.9 ;.o.o.X.X.s.r e D.A.& a > 5 r.r.0 ) ) 7.B q.0 7.0 ~ 4.t.( ",
". | M R < I < u.u. .*.< < 2.x C.D.M.(.| ].L i.7.0 7.d.y s.s.l.s.0 s.s.s.d.7.p r.m.r !.OXk.f 4 q.g.%.%.%.%.%.%.%.%.%.%.%.%.t.f /.",
". Y ' 6. .0.2...*.5 5 o.2...x.B.U.~./.= @Xf.t.H.Q Q Q H.Q Q H.Q Q Q Q Q Q Q Q Q H._.).%Xh.X H.b.n.n.n.n.n.n.n.n.n.n.n.n.n.n./ M.",
"& @.8.= r.a.0.) i.d.u.3.) x.Q (.U.# % 1 m.* /.n.n.n.n.n.n.n.n.n.n.n.n.n.n.n.n.n.n.2 U.O &.e k.^.%X%X%X%X%X%X%X%X%X%X%X%X%X%X%X%X",
"$ W @.v `.t.t.<.b.b.oXoXoXX w # OX&.& ~.%XW.%XW.W.W.W.W.W.W.W.W.W.W.W.W.W.W.W.W.W.%XR.U.n.* G.~.Y.Y.Y.Y.Y.Y.Y.Y.Y.Y.Y.Y.Y.Y.Y.U.",
"* % _.!.2 2 2 k.~.~.~.~.~.~.~.L.@ &.3 ).U.+ @ @ @ @ @ @ @ @ @ @ @ @ @ @ @ @ @ @ @ @ + A.e H.* (.(.(.(.(.(.(.(.(.(.(.(.(.(.(.V n.",
";XZ.:X>X:X:X:X:X:X:X:X:X:X:X:X:X,X<X1X2X3X4X5X5X5X5X5X5X5XS.5X5X5X5X5X5X5X5X5X5X5X5X4XV ( 6X6X6X6X6X6X6X6X6X6X6X6X( ( 6X6X6X6X6X",
"h.7X8X9X9X9X9X9X9X9X9X9X9X9X9X9X0XqXwXwXqX0X0X0X0X0X0X0XeXrXtX0X0X0X0X0X0X0X0X0X0X0X0XyXuXiXwXwXwXwXwXwXwXwXwXwXwXpXaXwXwXwXwXsX"
};
