/* XPM */
static char *_a813e5fb3654551dafe3ae7b74818bd8jzKjDcCQzEAPSX9[] = {
/* columns rows colors chars-per-pixel */
"64 64 256 2 ",
"   c black",
".  c #010101",
"X  c #020202",
"o  c gray1",
"O  c #040404",
"+  c gray2",
"@  c #060606",
"#  c #070707",
"$  c gray3",
"%  c #090909",
"&  c gray4",
"*  c #0B0B0B",
"=  c #0C0C0C",
"-  c gray5",
";  c #0E0E0E",
":  c gray6",
">  c #101010",
",  c #111111",
"<  c gray7",
"1  c #131313",
"2  c gray8",
"3  c #151515",
"4  c #161616",
"5  c gray9",
"6  c #181818",
"7  c #191919",
"8  c gray10",
"9  c #1B1B1B",
"0  c gray11",
"q  c #1D1D1D",
"w  c #1E1E1E",
"e  c gray12",
"r  c #202020",
"t  c gray13",
"y  c #222222",
"u  c #232323",
"i  c gray14",
"p  c #252525",
"a  c gray15",
"s  c #272727",
"d  c #282828",
"f  c gray16",
"g  c #2A2A2A",
"h  c gray17",
"j  c #2C2C2C",
"k  c #2D2D2D",
"l  c gray18",
"z  c #2F2F2F",
"x  c gray19",
"c  c #313131",
"v  c #323232",
"b  c gray20",
"n  c #343434",
"m  c #353535",
"M  c gray21",
"N  c #373737",
"B  c gray22",
"V  c #393939",
"C  c #3A3A3A",
"Z  c gray23",
"A  c #3C3C3C",
"S  c gray24",
"D  c #3E3E3E",
"F  c #3F3F3F",
"G  c gray25",
"H  c #414141",
"J  c gray26",
"K  c #434343",
"L  c #444444",
"P  c gray27",
"I  c #464646",
"U  c gray28",
"Y  c #484848",
"T  c #494949",
"R  c gray29",
"E  c #4B4B4B",
"W  c #4C4C4C",
"Q  c gray30",
"!  c #4E4E4E",
"~  c gray31",
"^  c #505050",
"/  c #515151",
"(  c gray32",
")  c #535353",
"_  c gray33",
"`  c #555555",
"'  c #565656",
"]  c gray34",
"[  c #585858",
"{  c gray35",
"}  c #5A5A5A",
"|  c #5B5B5B",
" . c gray36",
".. c #5D5D5D",
"X. c gray37",
"o. c #5F5F5F",
"O. c #606060",
"+. c gray38",
"@. c #626262",
"#. c gray39",
"$. c #646464",
"%. c #656565",
"&. c gray40",
"*. c #676767",
"=. c #686868",
"-. c DimGray",
";. c #6A6A6A",
":. c gray42",
">. c #6C6C6C",
",. c #6D6D6D",
"<. c gray43",
"1. c #6F6F6F",
"2. c gray44",
"3. c #717171",
"4. c #727272",
"5. c gray45",
"6. c #747474",
"7. c gray46",
"8. c #767676",
"9. c #777777",
"0. c gray47",
"q. c #797979",
"w. c gray48",
"e. c #7B7B7B",
"r. c #7C7C7C",
"t. c gray49",
"y. c #7E7E7E",
"u. c gray50",
"i. c #808080",
"p. c #818181",
"a. c gray51",
"s. c #838383",
"d. c #848484",
"f. c gray52",
"g. c #868686",
"h. c gray53",
"j. c #888888",
"k. c #898989",
"l. c gray54",
"z. c #8B8B8B",
"x. c gray55",
"c. c #8D8D8D",
"v. c #8E8E8E",
"b. c gray56",
"n. c #909090",
"m. c gray57",
"M. c #929292",
"N. c #939393",
"B. c gray58",
"V. c #959595",
"C. c gray59",
"Z. c #979797",
"A. c #989898",
"S. c gray60",
"D. c #9A9A9A",
"F. c #9B9B9B",
"G. c gray61",
"H. c #9D9D9D",
"J. c gray62",
"K. c #9F9F9F",
"L. c #A0A0A0",
"P. c gray63",
"I. c #A2A2A2",
"U. c gray64",
"Y. c #A4A4A4",
"T. c #A5A5A5",
"R. c gray65",
"E. c #A7A7A7",
"W. c gray66",
"Q. c #A9A9A9",
"!. c #AAAAAA",
"~. c gray67",
"^. c #ACACAC",
"/. c gray68",
"(. c #AEAEAE",
"). c #AFAFAF",
"_. c gray69",
"`. c #B1B1B1",
"'. c #B2B2B2",
"]. c gray70",
"[. c #B4B4B4",
"{. c gray71",
"}. c #B6B6B6",
"|. c #B7B7B7",
" X c gray72",
".X c #B9B9B9",
"XX c gray73",
"oX c #BBBBBB",
"OX c #BCBCBC",
"+X c gray74",
"@X c gray",
"#X c gray75",
"$X c #C0C0C0",
"%X c #C1C1C1",
"&X c gray76",
"*X c #C3C3C3",
"=X c gray77",
"-X c #C5C5C5",
";X c #C6C6C6",
":X c gray78",
">X c #C8C8C8",
",X c gray79",
"<X c #CACACA",
"1X c #CBCBCB",
"2X c gray80",
"3X c #CDCDCD",
"4X c #CECECE",
"5X c gray81",
"6X c #D0D0D0",
"7X c gray82",
"8X c #D2D2D2",
"9X c LightGray",
"0X c gray83",
"qX c #D5D5D5",
"wX c gray84",
"eX c #D7D7D7",
"rX c #D8D8D8",
"tX c gray85",
"yX c #DADADA",
"uX c gray86",
"iX c gainsboro",
"pX c #DDDDDD",
"aX c gray87",
"sX c #DFDFDF",
"dX c gray88",
"fX c #E1E1E1",
"gX c #E2E2E2",
"hX c gray89",
"jX c #E4E4E4",
"kX c gray90",
"lX c #E6E6E6",
"zX c #E7E7E7",
"xX c gray91",
"cX c #E9E9E9",
"vX c #EAEAEA",
"bX c gray92",
"nX c #ECECEC",
"mX c gray93",
"MX c #EEEEEE",
"NX c #EFEFEF",
"BX c gray94",
"VX c #F1F1F1",
"CX c gray95",
"ZX c #F3F3F3",
"AX c #F4F4F4",
"SX c gray96",
"DX c #F6F6F6",
"FX c gray97",
"GX c #F8F8F8",
"HX c #F9F9F9",
"JX c gray98",
"KX c #FBFBFB",
"LX c gray99",
"PX c #FDFDFD",
"IX c #FEFEFE",
"UX c white",
/* pixels */
"` x c c c c c c c c x A L K K K K K K K K K K K K K L M j b Z D H J J J J J H G D Z M l k x z z z z z z z z x c c c c c c c c c ",
">.Q ! ! ! ! ! ! ~ ~ Y Z.;X=X=X*X*X=X=X=X=X=X*X*X=X=X&X;.f  .v.U.).{.{.].].]./.E.P.z.&.V z P R E E E E E E T E ~ Q Q Q Q Q Q Q Q ",
"8.{ } } } } } } ) ( Q W.tX8X7X<X2X8X8X7X8X8X<X1X8X6X).` g %.~.+XT.I.U.Z.A.Z.Z.V.K.h.! z g ~ w.x.x.x.x.c.h.q.2.+./ / / / / / / / ",
"J.x.x.x.l.j.g.d.U K Q E.eX;XXX&X@X%X=XXX*X-X+X X*X(.e.G g <.#X#XA.A.D.S.D.A.S.V.S.6.Y k d [ R.8X7X5X5X6X,X|.^.G.x.z.l.l.l.l.l.l.",
"1X,X;X*X[.E.N.k.L G ! W.eX|.Q.^.~.K.U.~.~.^.U.U.^.N.*.B h @.W.!.b.m.D.U.T.T.F.v.p.%.Y k d { /.iX6X%X$X;X4X9X8X4X<X>X&X%X&X%X&X%X",
"oX(.(./.~.E.z.8.S G Q ).0X!.P.E.E.T.Y.R.K.P.A.F.W.x.#.N h L y.D.C.U.D.m.H.H.D.b.&._ U k d { /.5X].P.H.I.K././.E.D.K.T.K.R.L.R.S.",
"+XU.P.K.I.A.p.2.C V T `.iX'.Z.H.L.U.G.C.Z.A.M.V.I.B.;.N j G #.g.n.J.G.Z.Y.D.D.m.[ A Z l f { /.3XR.A.F.M.N.M.n.V.D.b.M.A.H.J.B.N.",
"+X(.N.L.F.m.6.| b x L ).uXQ.B.B.H.R.Y.C.h.k.M.H.F.t.o.B g G W :.B.K.G.M.k.g.m.j._ N N c l [ ^.5X).G.B.c.c.H.c.g.Z.F.B.U.H.v.c.J.",
"~.U.P.G.V.t.{ R l d F S.>X_.H.L.A.H.D.N.v.n.m.n.F.d.O.C t M W ^ =.%.T Y P P U I A M l d v ( P.tXXXZ.D.j.k.M.k.n.V.J.N.N.n.I.A.k.",
"J.c.b.x.e.O.W I k s F h.6X@XT.R.Z.v.N.m.v.v.v.S.D.6.*.W u k K J S A m m m m n m l i y z P Y y.1X}.b.n.b.C.V.V.N.z.B.Z.n.J.G.M.Z.",
"l.3.4.3.o.E S B d s D 8.*X_.H.D.N.h.g.v.D.V.A.A.S.d.#.K p j H H n z k g h k l b M b c V W W 9.+XY.M.C.M.S.z.l.a.5.3.>.;.<.>.;.,.",
"3.) ! E Y c p p y f F $.}.OXA.N.k.u.u.B.J.N.b.h.z.a.=.T f j H Y T R { 1.w.l.B.V.B.x.8.^ L ! 5.E.f.8.5.:.>.$. .} ] ) E E R R R R ",
"~ d d s d f g g g v Y / R.7XU.c.x.v.M.N.n.S.b.d.Z.N.>.I h h F } s.D.`.<X5X0X2X:X{.x.:.H N Q #.a.:.#.../ E E L A A Z V M x x x x ",
"~ d g g g j k k k n R Q k.;XW.A.C.h.l.S.B.v.m.n.n.p.@.P h s n ,.).>X8X;X^.E.T.I.L.i.{ x j A F L G F D Z C C V n z j a p u u u u ",
"} m M M M m m m m N R Q 7. X].A.G.A.b.k.z.g.k.D.Z.2.] U h p N 9.&X5X.XP.n.v.b.b.n.0.E k g m x x x x z l x x z v M M n n n n n n ",
"2.E H D D D D D D C Y W #.R.W.G.H.N.D.S.D.N.C.S.F.0.o.] c p V 0.1X2XH.v.A.A.C.A.C.i.Y k g S R ) ` ( S x L I U Y R R R R R R R R ",
"L.x.l.k.k.k.h.h.d.W h K / B.XXT.B.c.B.S.c.k.m.b.b.t.#.' N r n 0.2X%Xb.Z.Y.F.S.G.m.0.Y k f W y.!.&XC.E U O.y.c.c.c.c.c.c.c.c.c.c.",
"1X&X&X*X*X*X}.^.l.W a H Q 0._.I.S.C.j.l.x.l.Z.V.t.t.8.{ n e b 0.%X+XP.S.n.A.A.Z.V.4.Y k d +.[.3X%Xy.m [ x.@X4X3X3X3X3X3X3X3X3X3X",
"OXE.K.Q.U.Q.~.x.6.E d G Q #.n.I.Z.S.J.m.C.g.d.a.&.-.*.~ v e v 0.OXXXG.f.6.8.8.>.@.} Y k d 0.4XOXU.%.k @.~.qX1XOXOXOXOXOXoXOXoXOX",
"[.C.D.Z.F.Z.N.e.<.E d Z ^ / e.A.s.0.e.9.>.X.=.$.o.X.~ A d e d ,.I.k.i.r.{ J J F A A Z j M n.4XW.M.@.k $.`.6X[.T.P.T.P.I.Z.S.C.H.",
"{.D.B.G.A.G.L.i.+.K d V ^ W X.&.| [ ] ( R Y P C v l g p t r i X.s. .P I n i i p p p a y Z Z.,XE.F.@.k $._.,XI.V.C.V.C.B.b.a.d.b.",
"].Z.D.Z.F.Z.N.r...H d V ^ Q D M n n l f d f a u t t t t t t s S ' Q b g d i d k j g f f ~ !.>XW.J.@.l +.U.[.A.H.F.H.F.F.n.c.x.B.",
"Y.F.v.p.x.b.S.i. .H d c Q ] Q G c f s p i u t t v H J K K L P +.u.d.j.z.g.e.0.5.X.S z K u.;X:XL.c.} l O.J.{.H.V.C.V.C.V.b.a.d.b.",
"J.n.d.t.h.D.Z.7.) D d z *.E.XX{.).P.B.z.r.O.G V ^ ;.g.V.J.T.!.+X<X1X4X7X5X1X;X^.r.P g / K.7XXXT.n.) l | Z. XP.N.V.D.V.F.l.t.p.v.",
"K.x.A.H.M.m.c.2.^ S d z V.1XOX).~.E.Q.Y.D.*.U E @.J.5XuXeX<X@X%X;X;X;X;X;X;X;XU.:.F d { /.4X~.S.h.^ l ' v.(.A.H.M.M.M.b.n.V.n.H.",
"T.D.C.M.F.m.r.+.P V d z P.&XG.V.J.U.K.S.K.} D Q 1.%XtX}.(.E.P.R.H.U.E.R.W.H.D.s.} B d } [.6XK.Z.h.L z R ;.l.7.1.#.@.*.>.4.t.d.n.",
"j.4.1.>.3.*.` L V N d z L.+XI.I.D.L.D.D.k.K N T 5.>X2XT.U.S.k.C.P.S.n.m.F.A.V.i./ M d } }.7XY.L.p.F b J M T Y E T T R Q ! _ X.+.",
"4.! Q P H F x s a s f n P.'.K.G.F.!.F.k.5.A m Y 5.>X+XH.J.B.A.Z.N.l.f.V.J.V.m.9.~ M d } }.,XG.K.q.F n Y k a d h h h h g g x S G ",
") h j f d f g h h B G J Y..XG.M.H.J.G.z.<.S z J 6.>X@XM.D.Z.M.l.g.d.d.n.m.Z.A.5.~ M d } }.4XU.J.0.F n R M v v v v v z f f d s s ",
"o.R ) } :.9.8.6.6.0.| m F.#Xm.v.B.D.S.g.<.U g B 6.>X:XC.n.n.g.d.d.s.B.m.f.n.F.y.! M d } {.2XL.R.d.F b ~ U Y R ~ ! Q E T T J v v ",
"q.9.A.}.-X,X&X@X+X~.q.N C.#XK.B.g.x.G.M.5.E f m 1.+X3XR.b.C.N.B.v.t.z.k.s.C.F.0.T x f } `.$Xm.H.j.F z #.F.'.!.m.8.O.` ^ ^ Q P P ",
"i.V.%X7X2X&X X[./.W.4.v J.OXG.K.l.f.H.J.y.` l m &.(.1X'.Z.m.l.z.k.r.c.B.M.F.x.>.U c l } ).=XF.V.r.F j w.$XT.!.oX%X|.].`.`.U.,.K ",
"i.).=X}.).K.P.L.L.S.7.B L.oXH.K.G.J.S.H.g.{ c z ~ C.qX*XU.D.c.N.N.m.N.f.l.F.x.%.U v x } ).#XF.F.9.F j i.#Xz.C.).'.T.^.].E.H.<.F ",
"p.|.%XI.Z.F.A.J.D.F.p.A L.oXV.Z.I.H.F.D.e.} n s J f.8X,XE.R.Z.m.z.z.k.e.c.F.f.O.F k m +.~.#XU.J.0.F j u.;XL.G.B.Z.J.F.Z.S.s. .S ",
"p.}.OXH.G.A.G.T.b.D.9.m S.@XK.P.K.M.C.K.t.} M p H 8.-X8X).J.D.V.k.c.v.n.A.D.g.{ N a N $.Q.$XL.D.s.F j r.=XI.S.K.G.V.A.F.D.v.] A ",
"p.}.#XR.S.b.K.P.F.C.;.v C.,XF.V.b.B.I.L.r.} M t V #./.4X[.S.l.n.m.v.M.V.V.V.u.( z i N $.Q. XS.z.$.F k 8.XXT.I.I.S.A.b.A.U.m.^ A ",
"p.}.&XJ.F.K.A.J.D.F.<.v l.9XY.n.S.Z.D.C.8.| M e M ( n.<X+XS.M.B.Z.V.C.Z.c.p.%.R k d A o.Z.K.q. .G C N ,.^.L.F.Y.F.A.A.v.F.v.Q V ",
"p.}.&XY.T.G.F.J.J.A.:.v u.7XT.B.F.n.v.S.a.X.M e x T 0.]..XS.z.t.7.2.&.@.[ W K S k g F ) o.' Y A A K C W w.=.#.1.:.=.>.%.=.*.W B ",
"p.}.&XK.P.I.S.J.N.Z.<.v 3.>X/.z.Z.K.N.M.i.O.M e k U { u.S.a.=.[ E Z l j f s s d i g F Q W H P R Q ^ E F M z k x x x x x x x l h ",
"p.}.%XA.M.F.J.S.Z.Z.:.v o.+XXXV.J.J.n.Z.u. .M e f G R Q ~ L Z b g s s s d d d d d z F Q ) Q R Q Q Q Q I C C N x x x x x x x x c ",
"p.}.&XY.H.V.S.J.J.J.<.c Y }.|.H.F.b.Z.D.q.} M e a Z Y P C b n v z N F F F F F F F H P Q _ X.:.;.:.:.:.:.:.>.-.&.&.&.&.&.&.&.[ S ",
"p.}.&XK.C.F.V.L.S.h.$.v Z `.@XA.n.f.v.F.p.X.Z u a m Q $.=.%.%.%.%.=.:.:.:.:.:.:.1.7.0.y.f.B.I.T.!.!.!.!.!.E.T.!.!.!.!.!.!.H.-.F ",
"i.`.#XY.H.J.J.S.F.5.G h A _.-XV.C.n.k.M.r. .S p y l [ m.!.Q.Q.Q.Q.Q.Q.Q.Q.Q.Q.Q.^.).{.%X>X7XtXuXaXaXaXaXaXiXuXaXyX9X7X2X%XZ.| N ",
"i.(.@XT.T.A.L.P.A.;.x s D _.XXS.N.m.b.C.r.} J d e i ` I.:XqXaXpXpXpXaXrXrXaXtXrXpXpXsXkXzXkXhXdXeX3X2X6X7X1X:X7X2X-X,X-X(.w.W v ",
"i.E.oXE.D.F.S.C.b.*.c j H Q.XXU.N.C.C.M.w.} L g r e / P.<X3X3X7X7X7X7X;X-X7X:X-X7X7X3X,X;XXX`.^.I.U.R.T.!.F.A.T.W.I.!.Y.F.>.Y x ",
"4.H.W.Z.F.S.s.q.w.+.v z K L.`.V.F.D.F.N.q.X.L g r e Y D.4X-XW.J.K.K.K.D.I.W.I.~.^.U.L.R.!.T.H.v.h.B.A.P.L.n.M.D.A.P.Y.F.z.-.Y z ",
"-.V.E.H.T.V.>...X.J h v J N.^.M.M.F.D.m.r.O.L g r e C c.7X2XI.v.b.B.B.N.D.B.H.L.N.m.S.T.P.D.S.b.b.b.x.m.Z.Z.V.S.F.H.I.D.n.-.Y z ",
"-.w.n.c.r.>.| ) ) c s n J p.I.J.N.M.m.a.2...L g r r g r.4X0X].K.Z.m.M.M.c.j.B.D.V.m.A.K.L.v.j.v.C.Z.k.v.S.c.f.k.b.z.A.N.m.-.I f ",
"=.Q Y K B T _ _ _ v j S I 2.u.r.q.5.6.,.O.] L g r r p 2.>XrX].C.D.B.B.V.j.m.V.x.j.x.C.B.G.C.b.S.V.D.Z.m.n.s.f.h.b.V.x.d.i.-.P a ",
",.Y G B x v m V N j v K J E Q Y T T T T I K S g r r p $.XX1X`.Z.m.F.F.F.n.x.N.x.d.j.V.M.n.B.F.V.z.l.N.x.k.v.Z.k.l.Z.x.r.0.-.P a ",
":.W Q R K C M z s g n J D N l f f f f f f f g i r r p o.L.H.x.d.e.a.a.p.b.m.N.L.V.l.z.k.x.c.b.g.k.v.C.N.Z.n.D.V.h.v.c.j.d.-.P a ",
"=. .q.i.i.i.w.;._ H F R G N k a a s s s s s s s s s k / :.} ! E U U U U X.w.p.z.v.j.i.u.s.s.i.u.s.j.l.j.z.s.h.z.s.s.s.f.u.$.P a ",
"-.y.).=X,X>X*X+XT.j.u.0.@.) Y D M v v v v b b b b b C E Q K Z n v v v v M T  .+.=.-.%.%.%.%.%.%.%.%.%.%.%.%.%.%.%.%.%.%.@.^ v g ",
"-.z.;X-X#X[.*X0X0X1X>X{.D.c.h.p.e.0.0.0.1.*.=.#.X.| ] } ` ! U G H H H S m n C A A A A A A A A A A A C m m m m m m m m m M c g m ",
"-.z.3X XR.K.).@X{.XX,X6X1X:X:X>X>X>X>X>X%XoXOX]./.T.F.m.g.s.p.y.9. .E T S m v v v v v v v z h h h h f a a a a a a a a a d l N J ",
"-.z.3X.XG.U.F.B.A.H.P.T.|.}.XX}.XX|..X$X|.XX X}.oXoX#X-X:X:X=X+XK.@.P ~ Y G G A N N B B B M v v v b b b b b b b b b b b N H K T ",
"-.z.,X|.K.U.V.n.Z.A.b.l.G.C.M.D.N.g.v.I.M.v.n.M.P.I.Q.'..X$X@X~.g.W b R ! O.z.A.g.:.^ F F K Y Y P G F F F F F F F G G G P ! ~ ^ ",
"-.l.#X].J.U.B.v.M.G.B.D.E.F.v.b.N.g.f.b.v.x.V.N.G.S.F.S.D.W.Q.z.%.S g K T a.;X&X-X@XE.D.m.2._ / +.z.D.D.D.D.D.D.A.n.j.u.3.+.! ~ ",
"-.l.E.v.w.u.8.1.0.a.r.u.d.u.q.4.r.0.6.4.9.w.u.t.y.t.y.t.y.d.d.2.[ H h m H v.,X/..X>X,X<X*XM.{ [ x.,X*X*X+X.X+X.X@X{.(.P.W.K.+.C ",
"-.i.a.[ E W W Q W W W W W W W W W W W W W W W W W W W W W W W Y P G j s C d.@X'.}.(.A.V.Y.j.} :.!.`.J.I.A.K.U.S.F.H.S.S.E.^. .h ",
"=.' T x g h h h h h h h h h h h h h h h h h h h h h h h h h h h h h a p V  .6.6.w.i.4.<.e.2.] r.#XL.A.J.P.R.P.K.H.K.L.L.M.f.L h ",
">.J c h j s p p p p p p a a a a a a a a a a a a a a a a a a a a a a a d m J T J A J G G G G F @.c.w.7.0.y.w.7.0.e.0.y.q.2.=.P h ",
"3.~ T U K A Z Z Z Z Z Z m v v v v v v v v v v v v v v v v v v v v v v v n P ` ! U Z h h h h x J ) T B B B B B B B B B B B V c g ",
"*.U Y Y K H J H H H J H A B B B B B B B B B B B B B B B B B B B B B B B B F Y Y T H B B B B B D Y A g g g g g g g g g g g g g x "
};
