/* XPM */
static char *_275c5007f6842579f7e13a19eb5ebf4Va3H4sVjoJBNdfJL[] = {
/* columns rows colors chars-per-pixel */
"64 64 256 2 ",
"   c black",
".  c #010101",
"X  c #020202",
"o  c gray1",
"O  c #040404",
"+  c gray2",
"@  c #060606",
"#  c #070707",
"$  c gray3",
"%  c #090909",
"&  c gray4",
"*  c #0B0B0B",
"=  c #0C0C0C",
"-  c gray5",
";  c #0E0E0E",
":  c gray6",
">  c #101010",
",  c #111111",
"<  c gray7",
"1  c #131313",
"2  c gray8",
"3  c #151515",
"4  c #161616",
"5  c gray9",
"6  c #181818",
"7  c #191919",
"8  c gray10",
"9  c #1B1B1B",
"0  c gray11",
"q  c #1D1D1D",
"w  c #1E1E1E",
"e  c gray12",
"r  c #202020",
"t  c gray13",
"y  c #222222",
"u  c #232323",
"i  c gray14",
"p  c #252525",
"a  c gray15",
"s  c #272727",
"d  c #282828",
"f  c gray16",
"g  c #2A2A2A",
"h  c gray17",
"j  c #2C2C2C",
"k  c #2D2D2D",
"l  c gray18",
"z  c #2F2F2F",
"x  c gray19",
"c  c #313131",
"v  c #323232",
"b  c gray20",
"n  c #343434",
"m  c #353535",
"M  c gray21",
"N  c #373737",
"B  c gray22",
"V  c #393939",
"C  c #3A3A3A",
"Z  c gray23",
"A  c #3C3C3C",
"S  c gray24",
"D  c #3E3E3E",
"F  c #3F3F3F",
"G  c gray25",
"H  c #414141",
"J  c gray26",
"K  c #434343",
"L  c #444444",
"P  c gray27",
"I  c #464646",
"U  c gray28",
"Y  c #484848",
"T  c #494949",
"R  c gray29",
"E  c #4B4B4B",
"W  c #4C4C4C",
"Q  c gray30",
"!  c #4E4E4E",
"~  c gray31",
"^  c #505050",
"/  c #515151",
"(  c gray32",
")  c #535353",
"_  c gray33",
"`  c #555555",
"'  c #565656",
"]  c gray34",
"[  c #585858",
"{  c gray35",
"}  c #5A5A5A",
"|  c #5B5B5B",
" . c gray36",
".. c #5D5D5D",
"X. c gray37",
"o. c #5F5F5F",
"O. c #606060",
"+. c gray38",
"@. c #626262",
"#. c gray39",
"$. c #646464",
"%. c #656565",
"&. c gray40",
"*. c #676767",
"=. c #686868",
"-. c DimGray",
";. c #6A6A6A",
":. c gray42",
">. c #6C6C6C",
",. c #6D6D6D",
"<. c gray43",
"1. c #6F6F6F",
"2. c gray44",
"3. c #717171",
"4. c #727272",
"5. c gray45",
"6. c #747474",
"7. c gray46",
"8. c #767676",
"9. c #777777",
"0. c gray47",
"q. c #797979",
"w. c gray48",
"e. c #7B7B7B",
"r. c #7C7C7C",
"t. c gray49",
"y. c #7E7E7E",
"u. c gray50",
"i. c #808080",
"p. c #818181",
"a. c gray51",
"s. c #838383",
"d. c #848484",
"f. c gray52",
"g. c #868686",
"h. c gray53",
"j. c #888888",
"k. c #898989",
"l. c gray54",
"z. c #8B8B8B",
"x. c gray55",
"c. c #8D8D8D",
"v. c #8E8E8E",
"b. c gray56",
"n. c #909090",
"m. c gray57",
"M. c #929292",
"N. c #939393",
"B. c gray58",
"V. c #959595",
"C. c gray59",
"Z. c #979797",
"A. c #989898",
"S. c gray60",
"D. c #9A9A9A",
"F. c #9B9B9B",
"G. c gray61",
"H. c #9D9D9D",
"J. c gray62",
"K. c #9F9F9F",
"L. c #A0A0A0",
"P. c gray63",
"I. c #A2A2A2",
"U. c gray64",
"Y. c #A4A4A4",
"T. c #A5A5A5",
"R. c gray65",
"E. c #A7A7A7",
"W. c gray66",
"Q. c #A9A9A9",
"!. c #AAAAAA",
"~. c gray67",
"^. c #ACACAC",
"/. c gray68",
"(. c #AEAEAE",
"). c #AFAFAF",
"_. c gray69",
"`. c #B1B1B1",
"'. c #B2B2B2",
"]. c gray70",
"[. c #B4B4B4",
"{. c gray71",
"}. c #B6B6B6",
"|. c #B7B7B7",
" X c gray72",
".X c #B9B9B9",
"XX c gray73",
"oX c #BBBBBB",
"OX c #BCBCBC",
"+X c gray74",
"@X c gray",
"#X c gray75",
"$X c #C0C0C0",
"%X c #C1C1C1",
"&X c gray76",
"*X c #C3C3C3",
"=X c gray77",
"-X c #C5C5C5",
";X c #C6C6C6",
":X c gray78",
">X c #C8C8C8",
",X c gray79",
"<X c #CACACA",
"1X c #CBCBCB",
"2X c gray80",
"3X c #CDCDCD",
"4X c #CECECE",
"5X c gray81",
"6X c #D0D0D0",
"7X c gray82",
"8X c #D2D2D2",
"9X c LightGray",
"0X c gray83",
"qX c #D5D5D5",
"wX c gray84",
"eX c #D7D7D7",
"rX c #D8D8D8",
"tX c gray85",
"yX c #DADADA",
"uX c gray86",
"iX c gainsboro",
"pX c #DDDDDD",
"aX c gray87",
"sX c #DFDFDF",
"dX c gray88",
"fX c #E1E1E1",
"gX c #E2E2E2",
"hX c gray89",
"jX c #E4E4E4",
"kX c gray90",
"lX c #E6E6E6",
"zX c #E7E7E7",
"xX c gray91",
"cX c #E9E9E9",
"vX c #EAEAEA",
"bX c gray92",
"nX c #ECECEC",
"mX c gray93",
"MX c #EEEEEE",
"NX c #EFEFEF",
"BX c gray94",
"VX c #F1F1F1",
"CX c gray95",
"ZX c #F3F3F3",
"AX c #F4F4F4",
"SX c gray96",
"DX c #F6F6F6",
"FX c gray97",
"GX c #F8F8F8",
"HX c #F9F9F9",
"JX c gray98",
"KX c #FBFBFB",
"LX c gray99",
"PX c #FDFDFD",
"IX c #FEFEFE",
"UX c white",
/* pixels */
"/ Q w.E.}.@X>X1X1X1X1X1X1X1X1X,X:X:X:X,X,X,X,X,X,X,X,X*XXX'.U.,.Q Q ;.K.[.OX-X1X1X1X1X1X1X1X1X,X:X:X:X,X,X>X<X>X<X>X<X-X+X].Q.u.",
"/ Q <.^.%X@X#X%X%X@X+X#X#X+X+X X{.{.{.XXXXoXXXoXXXoX.X.XXXXXT.-.Q Q O.H.%X@X@X%X%X#X+X#X#X+X+XXX{.{.{. XoXXXoXXXoXXXXX XoXXX).q.",
"/ Q ,.!.@X.XoX+X#XoX{.XX X'.].[.[.[.[.}.oXXXXXXXXX X[.[.|.|.P.-.Q ! O.F.@XXXXX+X@X+X}. X.X].'.[.[.[.[.{..XoX.XoX.XXX[.[.}. XQ.0.",
"/ Q ,.Y. XoX|.[.XX#X X[.'./.).{.{.[.}.XX X.XXXXXXX{.}.[.(.).K.-.Q ! O.Z.}.XX.X[. X@XoX[.].)./.].}.[.{..X.X|.oX.XoX}.{.{.).(.E.0.",
"/ Q ,.Y.+X X[.[.[.OX.X[./.)./.}..X[.oX.X[.[.oXXXoX.XXX].(.(.F.-.Q ! O.Z.XXoX[.[.[.XXoX[.)./.).'.oX[..XOX[.[..XOX.XOX X X^.`.P.0.",
"/ Q ,.Y.oX.X{.[.[.XX|.'./.).).|.XX{.|.|.[.[..X}. XXX.X'.(./.D.-.Q ! O.Z..XXX}.[.[. X.X].(./._.[.oX}.}. X[.[.|..X{.oX.X{./.).P.0.",
"/ Q ,.Y.{.XX.X{.[.[.'./.)./.[. X.X X)./.].'.].(./.}.`./.^.!.G.-.Q ! O.Z.{. XXX}.[.[.].).(.(.`..X.X.X'.^.'.].'._.~.[.[.~.(.!.U.0.",
"/ Q ,.Y.{.'..X{.`.`.^.(.(.).(.[._.].).W./.(.)._.~.Q.!.~.!./.K.-.Q ! O.Z.{.].|. X`.`./.^.).(.(.'.]._.].W.^.).(._.^.Q.!.~.!.~.R.0.",
"/ Q ,.I._.^./.!.Q.Q.W.R.^.(.).^.R.E.!.Q.!.^.!.'._.T.~.`.!.E.F.-.Q ! O.C._././.~.Q.Q.W.R.!.).(.(.E.R.!.!.Q.^.~.).[.E.W.`./.R.P.0.",
"/ Q ,.G.H.T.U.I.U.R.R.K.I./.!.Y.K.P.!.!.~.Y.U.Q.E.L.K.Y.L.P.S.-.Q ! O.M.L.P.R.L.U.Y.E.P.L.!.^.T.P.K.W.~.!.E.P.Q.W.I.J.U.I.K.J.0.",
"/ Q ,.Z.B.N.L.F.M.F.K.K.J.I.G.D.P.F.A.J.H.H.U.U.K.K.A.N.K.L.N.-.Q ! O.b.A.m.H.J.N.A.L.J.K.L.K.A.L.J.Z.H.K.G.I.Y.L.J.F.M.F.U.C.0.",
"/ Q ,.z.v.b.B.M.V.N.F.Z.F.F.B.J.J.N.N.N.B.N.B.N.D.S.N.M.D.G.M.;.Q Q +.h.b.v.N.B.B.V.A.D.A.H.V.D.L.C.M.B.N.B.N.B.Z.G.M.N.C.K.B.0.",
"( Q ;.h.h.l.j.l.v.c.j.l.j.f.m.N.v.c.j.l.j.k.j.k.k.l.k.k.k.f.f.&.Q ! o.s.k.j.k.j.c.v.l.k.l.f.c.V.v.v.l.j.l.j.l.j.l.j.l.j.z.g.f.3.",
"~ T ) | } | } | | | } | } } | | | | } | } | } | } } } | } } } ~ E E ! } | } | } | | | } | } | | | | | } | } | } | } | } | } | / ",
"Y G N n n n n n n n n n n n n n n n n n n n n n n n n n n n n B J K B n n n n n n n n n n n n n n n n n n n n n n n n n n n N B ",
"T Y U U U U U U U U U U U Y Y T T Y Y U U U U U U U U U U U U U Y Y U U U U U U U U U Y Y Y T T T Y Y U U U U U U U U U U U Y G ",
":.:.:.:.:.:.:.:.:.:.-.&.$.+.] ( ( } @.%.*.;.:.:.:.:.:.:.:.:.:.:.:.:.:.:.:.:.:.:.:.:.;.#.[ _ ( ( ( ] @.$.&.-.:.:.:.:.:.:.:.:.>.$.",
"*X*X=X=X=X=X=X=X=X=X+X'.Q.S.$.! Q 4.J./.{.$X-X-X-X-X-X-X-X-X=X*X*X*X=X=X=X=X=X=X=X=X+XD.1.X./ E ~ #.A.!.].+X-X-X-X-X-X-X=X*X*XoX",
"}.|.+XoX+XoX+XoX+XXXoXXXXXK.+.! Q =.R.$X#X$X&X&X$X#X%X%X#X$XoX}.}.}.oXOXOXOXOXOXOXOX!.z.t.t...P ! | C.#X#X#X&X&X%X#X#X$X+X|.|.).",
"[.[.}.oX.XoX.XoX X[.{..X|.F.+.! Q *.Y.#XXXoX@X#XoX}.XX.X[.[.[.[.[.[.{.XXXXXXXXXX.X{.I.d.n.H.1.W ! } V.@XoX.X@X#X+X}.[.].[.[.[.^.",
"[.].XX XXX X.X|.}.].].(.).D.+.! Q *.K.}.oX.X{.XX@X X].[.(._.{.{.{.].|..X.X.X X X}.].F.F. XU.3.Q ! | m.{..XoX{. X@XXX_./.{.{.|.).",
"|./._.[.].]./.). X).(.^.!.A.+.! Q *.J.{.XXXX{.[.{.].(.).(.]..X X.X)./.[.].].)./.{.E.G.`.}.L.2.Q ! | m.[. XoX{.[.{.[.).)..X XoX].",
".X`.~.`.(.'.(.^.^.^.!.!.).D.+.! Q *.J.}.{.XX X[.{._.).(.(.(.{.{.[.{.~.)._._.`.Q.G.F.`.[.).U.2.Q ! | m.{.{. XXX[.{.'.(._.`..X/.Y.",
"{..X{.[.].XX{. X X X_.(.^.Z.+.! Q *.J.XX.X{.[.[..X X'.(.(.).{.XX{. X|.[.[.}.[.U.m.L.{.(.(.J.2.Q ! | m.|.oX}.{.[.|.XX]._.'.oX{./.",
"|.(._.[.].[./._..X_.(.^.Q.Z.+.! Q *.J.}.XX.X{.[.{.[.(.(.(.]..X.X.X_.(.`.).T.A.m.c.Z.~.(.!.K.2.Q ! | m.[. XoX{.[.{.[._._..X XOX[.",
" X(.Q.).(._.(.!.!.!.~.Q.(.D.+.! Q *.J.{.[..X|.'.'././.(.(.(.[.].`.(.Y.K.V.V.P.I.N.x.F.!.^.U.2.Q ! | m.[.[.|..X'.'.).^.).`.}.~.I.",
"!.!.Q.!.(.~.[.(.R./.`.!.W.Z.+.! Q *.H.'./.(./.Q.Q.Q.E.^.(.(.(.E.D.M.B.N.N.J._.`.A.c.K./.W.K.2.Q ! | n.'.(./.(.Q.Q.Q.Q./.).Q.R.H.",
"Y.^.~.^.U.Y.!.E.K.I.E.L.I.C.+.! Q *.A.P.R.T.I.T.R.E.L.I./.^.R.D.v.A.Q.Q.K.P.W.G.b.J.^.I.L.H.3.Q ! | c.U.P.W.L.T.T.E.!.(.E.U.G.B.",
"D.D.P.J.L.T.T.K.L.Z.V.P.K.m.+.! Q *.V.Z.B.L.H.N.F.L.K.K.I.L.B.N.C.Z.L.L.J.T.G.x.F./.L.J.I.V.3.Q ! | z.F.m.H.L.V.Z.P.L.I.S.J.Y.G.",
"m.B.N.V.N.C.B.H.Z.N.m.H.G.n.@.! Q *.k.b.v.V.N.N.B.F.S.D.J.V.B.A.B.N.B.B.B.V.N.f.V.E.B.A.K.B.3.Q ! | d.b.c.N.V.M.V.Z.K.C.Z.P.F.M.",
"m.z.v.z.v.z.v.c.v.x.v.c.k.j.O.~ Q %.j.x.c.x.c.M.m.c.v.x.h.M.A.M.m.c.c.c.x.c.h.u.g.n.x.v.l.k.<.Q ~ } a.c.z.v.z.m.M.b.l.b.D.N.M.l.",
"#.@.#.@.#.@.#.@.#.@.#.@.@.@.^ R T ` @.@.#.@.@.#.#.@.#. .` X.$.#.#.@.@.@.@.#. .} +.@.@.@.@.@.' T R ~ +.#.@.#.@.#.#.#.+.#.$.#.#.X.",
"m M M M M M M M M M M M M M n b b n M M M M M m m M M n b n m M m m M M M M m n M M M M M M n b b n M M M M M m m M M M m m M v ",
"P P P P P P P P P P P P P P P P P P P P P P P P P P P P P P P L H J P P P P P P P P P P P P P P P P P P P P P P P P P P P P P D ",
"( ( [ | ..X.O.O.O.O.O.O.O.O.O.O.O.O.O.O.O.O.O.O.O.O.O.o.X. .| ! R Q / |  .X.o.O.O.O.O.O.O.O.O.O.O.O.O.O.O.O.O.O.O.O.O.O.X... ./ ",
"( ! 0.F.R.).XX@X@X@X@X@X@X@X@X+X+X+X+X@X+X+X+X+X+X+X+X|.^.U.Z.;.Q Q =.C.Y./.|.@X@X@X@X@X@X@X@X@X+X+X+X+X@X+X@X+X@X+X@XXX).T.F.w.",
"/ Q 2.^.$X$X&X*X*X&X&X*X*X&X&XOX.X.X.X@X@X#X@X#X@X@X+X+XoXXXR.;.Q Q @.J.#X#X%X*X*X*X&X*X*X&X&X@X.X.X.XOX#X+X#X+X#X+X#XoX+X.X).w.",
"/ Q ,.~.$XXXOX#X#XXX}.oX.X{.{.[.[.[.[.{.XX.XXX.XXX.X[.{..XXXP.-.Q ! O.G.$XoXXX#X#XOX}.XXoX{.{.{.[.[.[.{..XoX.XoX.XXX{.[. XoX!.0.",
"/ Q ,.T. XoX X}.OX#X X{.[.(._.[.[.[.{.XX.XXXXXXXXX{.{.[.)._.L.-.Q ! O.A.|.XXXX}.XX#XXX{.{.).(.[.{.[.[. XXX.XoX.XoX}.[.{.`.).W.0.",
"/ Q ,.Y.oX.X{.[.{.OX X].(.).(.}..X[..X.X{.{.XX X.X.X.X].(.(.F.-.Q ! O.Z..XXX}.[.{.XXXX[.)./.).].XX{.|.XX{.{..XXX XXX X|./.).I.0.",
"/ Q ,.Y.}.oX X[.[.{.[.(.)./.[..XXX X)._.[.].{.)._..X].(./.!.F.-.Q ! O.Z.}..XXX{.[.{.{.)./.(.`..X.XXX'.(.].[.[.'./.|.|.(.).!.P.0.",
"/ Q ,.Y.{.{.XX|.].]./.(./.).).}.].}._.Q.).).).(.!.~.!.!.Q./.K.-.Q ! O.Z.{.[..X.X].].)./.)./.).].}.'.[.W./._.(._.!.~.~.!.!.~.E.0.",
"/ Q ,.U.]./.`./.!.!.Q.W.(./.).(.Q.!.!.W.!.(.^.]._.E.^.`.^.Q.G.-.Q ! O.Z.].).)._.!.!.Q.W.^.)./.).!.Q.~.Q.Q././._.[.E.!.`.(.W.I.0.",
"/ Q ,.H.P.Q.Y.U.R.E.E.L.Y.(.^.E.L.I.^.~./.R.U.~.Q.P.I.Q.I.I.D.-.Q ! O.N.Y.T.W.I.R.E.W.I.P.^.(.W.I.L.!./.~.Q.I.!.~.U.L.W.T.L.K.0.",
"/ Q ,.D.C.Z.P.H.B.K.L.L.K.Y.L.F.P.J.G.I.P.L.T.R.L.L.D.C.L.L.B.-.Q ! O.m.F.B.L.L.C.F.I.K.L.I.U.D.K.L.F.L.U.K.Y.E.I.K.H.B.H.I.Z.0.",
"/ Q ,.x.v.v.Z.N.N.B.H.S.H.J.B.G.K.B.B.B.V.B.Z.C.G.D.N.M.F.K.M.;.Q ! +.h.b.c.B.V.M.B.D.G.S.L.C.A.P.C.M.V.B.V.V.Z.A.H.N.N.Z.I.V.0.",
"/ Q >.x.c.b.v.n.B.N.n.m.n.c.Z.F.C.N.v.n.b.b.b.b.m.m.b.b.m.c.x.=.Q ! O.h.v.v.b.b.B.B.m.n.m.c.N.G.Z.B.n.v.n.v.n.v.m.n.n.v.m.v.x.7.",
"/ W ..;.-.;.-.;.;.;.-.-.-.=.>.>.;.;.-.-.-.-.-.-.-.-.-.-.-.=.-.[ Q Q ' =.-.-.-.-.;.;.-.-.-.=.;.>.;.;.;.-.;.-.;.-.;.-.;.-.;.=.-.| ",
"/ E K Z B B B B B B B B B B B B B B B B B B B B B B B B B B S D K K D S B B B B B B B B B B B B B B B B B B B B B B B B B B Z Z ",
"R T I K J J J J J J J J J J J J J J J J J J J J J J J J J J K P U U P K J J J J J J J J J J J J J J J J J J J J J J J J J J K D ",
"[ [ [ [ [ [ [ [ [ [ [ ] ' ' ) ( / _ ' ] ] [ [ [ [ [ [ [ [ [ [ [ [ [ [ [ [ [ [ [ [ [ [ ] ] ' _ / ( ) ' ' ] [ [ [ [ [ [ [ [ [ { / ",
"[.[.{.{.{.{.{.{.{.{./.U.D.v.@.~ ! 1.M.H.R._.{.{.{.{.{.{.{.{.{.[.[.[.{.{.{.{.{.{.{.{._.T.H.N.2.! ~ @.v.F.U./.{.{.{.{.{.{.{.[.{./.",
"OXOX&X#X&X#X&X#X&X#X#XXX.XL.@.! Q :.R.#X$X*X-X-X-X-X-X-X-X-X$XOXOXOX$X%X$X%X$X%X$X%X@XOX.X~.4.Q ! ..A.+X#X&X-X-X-X-X-X-X&XOXOX[.",
"[.[.}.oX.XoX.XXX.X[.}.XX.XG.+.! Q &.T.%XoXOX#X$XoX}.oXoX}.}.{.[.[.[.{.XXXXXXXX.XXX{.{..XoXE.2.Q ! } V.$XOXXX#X$X+X|.}.}.}.[.[.^.",
"[.{.XX.XoX.XoX.X{.[.[._.`.F.+.! Q *.L. XXX.X|.OX@X X{.{.).).[.[.[.[..XXXXXXXXXXX}.[.[.`.`.T.2.Q ! | M.|..XXX|.XX#XXX`.(.[.[.[.^.",
"[.XX.X{.}.oX.XXX|..X`.(./.Z.+.! Q *.J.XXXX{.[.{.OX.X[.).(./.[..X[. XXX{.{.XXXX.X.X X{./.).K.2.Q ! | m.|.oX}.[.{.XXOX].).`.XX{./.",
"}._.'.[.[.}.).'.XX].)./.Q.Z.+.! Q *.J.|.XX X[.[.}.{.).(.(.U.Q.XX.X`._.[.[.{.`._..X}.).(.!.J.2.Q ! | m.{..XXX[.[.{.}.`._. X.XOX{.",
".X(.!.`.(.`.^.!./.!.!.Q./.D.+.! Q *.J.{.{.XX X].[.).(.(.(.!.P.R.{.'.Q.)._.).).Q.^.~.!.!.^.U.2.Q ! | m.[.{..XXX[.[.`./._.]. X).R.",
"/.!.W.!.(./.[.(.E./.`.~.!.A.+.! Q *.J.[.(.'._.~.~.Q.Q.(.(.(.!.D.L.^.W.Q.(./.'.'.E.~.`./.!.L.2.Q ! | m.[._.).'.~.~.!.Q./._.^.W.K.",
"T./.~./.T.T.^.!.L.T.~.I.U.C.+.! Q *.S.T.Q.E.Y.E.E.W.P.Y.(.(.U.A.J.^.^.^.W.U.~.^.I.U.~.T.P.J.3.Q ! | v.R.T.!.I.E.E.W.!.).!.Y.H.V.",
"H.K.T.I.I.R.E.L.L.S.S.P.K.M.+.! Q *.Z.S.A.I.K.Z.J.I.L.K.Y.K.V.I.Y.H.U.Y.P.T.E.I.L.G.Z.K.P.Z.3.Q ! | x.J.V.P.P.S.D.U.I.R.G.K.U.F.",
"M.V.V.C.V.S.Z.J.S.B.m.K.J.n.@.! Q *.z.n.v.Z.V.M.B.G.F.G.K.A.C.G.A.N.C.C.C.A.A.F.H.B.M.D.P.B.3.Q ! | f.m.c.B.A.m.B.S.P.A.C.P.H.V.",
"N.n.m.n.m.b.m.N.N.n.m.N.n.x.+.! Q &.l.v.b.n.m.V.B.N.N.N.n.M.C.C.V.n.n.n.n.n.n.N.N.m.n.N.m.v.2.Q ! | d.n.v.m.n.B.V.N.m.N.H.D.Z.b.",
"7.4.5.4.5.4.5.4.5.4.5.4.2.3.] ~ Q ..4.5.5.4.5.7.7.4.5.5.2.5.1.1.7.5.5.5.5.5.5.5.4.5.4.5.2.3.O.Q ~ ` 1.5.4.5.4.7.7.5.2.6.0.7.7.1."
};
